<svg width="118" height="118" viewBox="0 0 118 118" fill="none" xmlns="http://www.w3.org/2000/svg">
<g filter="url(#filter0_d)">
<circle cx="59" cy="55" r="55" fill="#EABFA7"/>
</g>
<path d="M33.528 54.816C33.528 54.72 33.576 54.624 33.624 54.552C34.224 53.592 34.536 52.656 34.536 51.528C34.536 49.032 33 46.848 30.576 46.2C30.288 46.128 29.976 46.08 29.664 46.08C28.752 46.08 27.96 46.488 27.096 46.704C26.52 46.848 25.992 47.112 25.872 47.76C25.8 48.12 25.8 48.504 25.8 48.864C25.8 49.608 25.872 50.376 25.872 51.12C25.872 54.696 25.896 58.296 26.352 61.848C26.472 62.808 27.096 63.432 28.08 63.432C28.368 63.432 28.656 63.36 28.944 63.36C29.352 63.36 29.76 63.456 30.168 63.456C32.904 63.456 36.12 61.008 36.12 58.128C36.12 57.384 35.856 56.736 35.328 56.184C34.824 55.656 34.416 55.488 33.792 55.152C33.648 55.08 33.528 54.984 33.528 54.816ZM30.48 60.72C30.288 60.72 30.024 60.6 30 60.384C29.856 59.544 29.784 58.608 29.784 57.768C29.784 57.456 29.976 57.216 30.288 57.216C31.008 57.216 32.328 57.264 32.328 58.248C32.328 59.088 31.44 60.312 30.72 60.672C30.648 60.72 30.576 60.72 30.48 60.72ZM29.832 53.784C29.688 53.784 29.664 53.616 29.664 53.496C29.592 52.392 29.64 51.288 29.64 50.184C29.64 49.92 29.592 49.68 29.592 49.416C29.592 49.272 29.688 49.152 29.832 49.152C29.928 49.152 30.024 49.224 30.096 49.296C30.528 49.848 30.792 50.832 30.792 51.528C30.792 52.248 30.552 53.112 30.048 53.664C30 53.712 29.928 53.784 29.832 53.784ZM48.0259 47.784C48.0259 47.232 47.5939 46.8 47.1139 46.608C46.4659 46.344 45.7939 46.368 45.1219 46.368C43.1299 46.368 42.7459 46.344 41.2579 46.416C39.9619 46.488 39.9139 47.472 39.8899 48.624C39.8659 51.12 39.7219 53.592 39.7219 56.088C39.7219 57.888 39.8419 59.664 40.0579 61.44C40.1299 61.992 40.1059 62.76 40.4419 63.216C41.0899 64.08 43.1299 64.08 44.1379 64.08C45.1459 64.08 47.6899 64.032 47.6899 62.568C47.6899 61.56 46.5139 61.2 45.6979 61.2C45.1699 61.2 44.6179 61.344 44.0899 61.344C43.7059 61.344 43.8019 61.032 43.7779 60.768C43.6339 59.376 43.5139 58.008 43.5139 56.616C43.5139 56.376 43.6579 56.136 43.8979 56.064C44.9539 55.752 48.0019 55.056 48.0019 53.688C48.0019 52.752 46.9459 52.32 46.1539 52.32C45.2179 52.32 44.1619 53.064 43.8739 53.064C43.6579 53.064 43.5859 52.872 43.5859 52.68C43.5859 52.128 43.6339 51.552 43.6579 51C43.6819 50.52 43.6579 50.04 43.7059 49.56C43.7299 49.224 43.9219 49.056 44.2579 49.056C44.8819 49.056 45.4819 49.104 46.1059 49.104C46.8739 49.104 48.0259 48.72 48.0259 47.784ZM56.8841 55.032C56.3561 55.032 55.7561 54.984 55.7561 54.312C55.7561 53.496 57.4361 49.32 58.2761 49.32C58.3721 49.32 59.0681 50.256 60.3161 50.256C61.0841 50.256 62.2361 49.728 62.2361 48.84C62.2361 47.472 59.3321 46.416 58.1801 46.416C53.7161 46.416 51.6281 52.776 51.6281 56.376C51.6281 60.216 53.7401 64.104 58.0361 64.104C62.0441 64.104 64.1081 60.816 64.1081 57.12C64.1081 55.2 63.4601 54.864 61.6121 54.864C60.0521 54.864 58.4681 55.032 56.8841 55.032ZM58.1561 61.296C56.9561 61.296 55.6841 59.328 55.6841 58.248C55.6841 57.696 56.5481 57.888 56.9081 57.888C57.8201 57.888 58.7321 57.744 59.6201 57.744C59.9081 57.744 60.1481 57.84 60.1481 58.176C60.1481 59.112 59.2841 61.296 58.1561 61.296ZM69.7943 49.368C68.0903 49.44 67.9223 50.208 67.9943 51.72C68.0423 52.728 67.9943 53.352 67.9703 54.384C67.8983 56.208 67.9223 56.496 67.8743 58.32C67.8503 58.776 67.8023 59.256 67.8263 59.712C67.8743 61.008 68.6183 61.392 69.8183 61.32C70.7303 61.272 71.4743 60.816 71.6903 59.88C71.6423 59.064 71.8103 58.344 71.8343 57.336C71.8583 55.056 71.9783 53.112 71.8583 50.856C71.8103 49.656 70.8503 49.32 69.7943 49.368ZM69.7463 47.712C70.6583 47.664 71.6903 47.16 71.6423 46.104C71.5943 45.072 70.4903 44.688 69.6023 44.736C68.7143 44.784 67.6823 45.264 67.7303 46.296C67.7783 47.328 68.8583 47.736 69.7463 47.712ZM90.6304 47.328C90.6304 46.128 89.8384 45.6 88.7104 45.6C88.4704 45.6 88.2304 45.624 87.9904 45.696C86.7664 46.056 86.7904 46.968 86.7424 48.048C86.6224 50.184 86.5264 53.328 86.0464 55.344C86.0224 55.44 85.9744 55.584 85.8304 55.584C85.7344 55.584 85.6624 55.512 85.5904 55.44C84.1264 53.856 81.2944 50.376 79.0144 50.376C78.1504 50.376 77.4544 50.784 77.1904 51.648C76.4704 54.096 76.0864 56.808 75.7744 59.352C75.7024 60.024 75.5344 60.72 75.5344 61.392C75.5344 61.536 75.5344 61.68 75.5584 61.824C75.6784 62.712 76.7344 62.976 77.4784 62.976C77.6464 62.976 77.8144 62.952 77.9824 62.928C79.5904 62.592 79.3744 60.936 79.5184 59.664C79.6624 58.248 79.8784 56.472 80.2144 55.104C80.2384 54.984 80.2864 54.816 80.4304 54.816C80.5504 54.816 80.6224 54.888 80.6944 54.96C82.1824 56.376 83.4544 58.224 84.9424 59.712C85.4704 60.24 86.2384 60.576 87.0064 60.576C87.7264 60.576 88.2784 60.264 88.5904 59.592C90.1504 56.304 90.2224 52.56 90.4624 49.008C90.5104 48.432 90.6304 47.88 90.6304 47.328Z" fill="#4A4A4A"/>
<defs>
<filter id="filter0_d" x="0" y="0" width="118" height="118" filterUnits="userSpaceOnUse" color-interpolation-filters="sRGB">
<feFlood flood-opacity="0" result="BackgroundImageFix"/>
<feColorMatrix in="SourceAlpha" type="matrix" values="0 0 0 0 0 0 0 0 0 0 0 0 0 0 0 0 0 0 127 0"/>
<feOffset dy="4"/>
<feGaussianBlur stdDeviation="2"/>
<feColorMatrix type="matrix" values="0 0 0 0 0 0 0 0 0 0 0 0 0 0 0 0 0 0 0.25 0"/>
<feBlend mode="normal" in2="BackgroundImageFix" result="effect1_dropShadow"/>
<feBlend mode="normal" in="SourceGraphic" in2="effect1_dropShadow" result="shape"/>
</filter>
</defs>
</svg>
