<svg width="38" height="38" viewBox="0 0 38 38" fill="none" xmlns="http://www.w3.org/2000/svg">
<circle cx="19.3779" cy="18.6201" r="18.6201" fill="#D7C79E"/>
<path d="M20 6.24023C16.7378 6.24023 16.3313 6.25599 15.0546 6.30999C13.7727 6.373 12.9056 6.57178 12.1405 6.86881C11.3398 7.17112 10.6146 7.64442 10.0155 8.25574C9.40248 8.85341 8.92891 9.579 8.62858 10.3808C8.33154 11.1458 8.13277 12.013 8.06976 13.2949C8.012 14.5723 8 14.9781 8 18.2402C8 21.5024 8.01575 21.9089 8.06976 23.1856C8.13277 24.4638 8.33154 25.3346 8.62858 26.0997C8.93088 26.9005 9.40419 27.6257 10.0155 28.2247C10.6132 28.8378 11.3388 29.3113 12.1405 29.6117C12.9056 29.9049 13.7765 30.1075 15.0546 30.1705C16.332 30.2282 16.7378 30.2402 20 30.2402C23.2622 30.2402 23.6687 30.2245 24.9454 30.1705C26.2235 30.1075 27.0944 29.9042 27.8595 29.6117C28.6602 29.3094 29.3854 28.836 29.9845 28.2247C30.5983 27.6277 31.072 26.9019 31.3714 26.0997C31.6647 25.3346 31.8672 24.4638 31.9302 23.1856C31.988 21.9082 32 21.5024 32 18.2402C32 14.9781 31.9842 14.5715 31.9302 13.2949C31.8672 12.0167 31.664 11.1413 31.3714 10.3808C31.0691 9.58 30.5958 8.85481 29.9845 8.25574C29.3875 7.64193 28.6617 7.16824 27.8595 6.86881C27.0944 6.57178 26.2235 6.373 24.9454 6.30999C23.668 6.25224 23.2622 6.24023 20 6.24023ZM20 8.4005C23.2037 8.4005 23.5862 8.41626 24.8524 8.47026C26.0203 8.52502 26.6563 8.72004 27.0786 8.88507C27.6007 9.07778 28.0732 9.38452 28.4618 9.78293C28.8595 10.1698 29.1651 10.6413 29.3559 11.1623C29.5209 11.5847 29.716 12.2207 29.7707 13.3886C29.8247 14.6548 29.8405 15.0381 29.8405 18.241C29.8405 21.4439 29.8247 21.8272 29.7662 23.0933C29.7032 24.2612 29.5082 24.8973 29.3439 25.3196C29.1166 25.8829 28.8631 26.2767 28.4446 26.7028C28.0547 27.0987 27.5825 27.404 27.0614 27.5969C26.6443 27.7619 25.9993 27.9569 24.8269 28.0117C23.5539 28.0657 23.1789 28.0815 19.967 28.0815C16.7551 28.0815 16.3808 28.0657 15.1064 28.0072C13.9385 27.9442 13.2942 27.7492 12.8719 27.5849C12.3018 27.3576 11.911 27.1041 11.4924 26.6855C11.0701 26.2632 10.8016 25.8612 10.5946 25.3024C10.4266 24.8853 10.2345 24.2402 10.1723 23.0678C10.1295 21.8099 10.1093 21.4199 10.1093 18.223C10.1093 15.0276 10.1295 14.6368 10.1723 13.3631C10.2345 12.1907 10.4266 11.5471 10.5946 11.1286C10.8016 10.5578 11.0709 10.1677 11.4924 9.74542C11.9102 9.32762 12.3018 9.05759 12.8719 8.84606C13.2942 8.68179 13.9227 8.48677 15.0951 8.42826C16.368 8.3825 16.7431 8.366 19.9505 8.366L20 8.4005ZM20 12.0812C19.1909 12.0809 18.3897 12.2401 17.6421 12.5496C16.8946 12.859 16.2153 13.3128 15.6432 13.8849C15.0711 14.457 14.6173 15.1363 14.3078 15.8839C13.9983 16.6314 13.8392 17.4326 13.8395 18.2417C13.8392 19.0508 13.9983 19.8521 14.3078 20.5996C14.6173 21.3472 15.0711 22.0264 15.6432 22.5985C16.2153 23.1707 16.8946 23.6244 17.6421 23.9339C18.3897 24.2434 19.1909 24.4025 20 24.4023C20.8091 24.4025 21.6103 24.2434 22.3579 23.9339C23.1054 23.6244 23.7847 23.1707 24.3568 22.5985C24.9289 22.0264 25.3827 21.3472 25.6922 20.5996C26.0017 19.8521 26.1608 19.0508 26.1605 18.2417C26.1608 17.4326 26.0017 16.6314 25.6922 15.8839C25.3827 15.1363 24.9289 14.457 24.3568 13.8849C23.7847 13.3128 23.1054 12.859 22.3579 12.5496C21.6103 12.2401 20.8091 12.0809 20 12.0812ZM20 22.242C17.7887 22.242 15.9998 20.453 15.9998 18.2417C15.9998 16.0305 17.7887 14.2415 20 14.2415C22.2113 14.2415 24.0002 16.0305 24.0002 18.2417C24.0002 20.453 22.2113 22.242 20 22.242ZM27.849 11.8352C27.8486 12.2175 27.6964 12.584 27.426 12.8542C27.1555 13.1244 26.7888 13.2761 26.4066 13.2761C26.2175 13.2761 26.0303 13.2389 25.8557 13.1665C25.6811 13.0942 25.5224 12.9882 25.3887 12.8545C25.2551 12.7209 25.149 12.5622 25.0767 12.3875C25.0044 12.2129 24.9671 12.0257 24.9671 11.8367C24.9671 11.6477 25.0044 11.4605 25.0767 11.2858C25.149 11.1112 25.2551 10.9525 25.3887 10.8189C25.5224 10.6852 25.6811 10.5792 25.8557 10.5068C26.0303 10.4345 26.2175 10.3973 26.4066 10.3973C27.1994 10.3973 27.849 11.0423 27.849 11.8352Z" fill="#4A4A4A"/>
</svg>
