<svg width="24" height="25" viewBox="0 0 24 25" fill="none" xmlns="http://www.w3.org/2000/svg">
<path d="M12 0.240234C8.73784 0.240234 8.33129 0.255986 7.05463 0.309993C5.77272 0.373001 4.90561 0.571776 4.14052 0.868813C3.33976 1.17112 2.61457 1.64442 2.0155 2.25574C1.40248 2.85341 0.928914 3.579 0.628579 4.38075C0.331541 5.14585 0.132767 6.01296 0.0697587 7.29487C0.0120015 8.57228 0 8.97808 0 12.2402C0 15.5024 0.015752 15.9089 0.0697587 17.1856C0.132767 18.4638 0.331541 19.3346 0.628579 20.0997C0.930882 20.9005 1.40419 21.6257 2.0155 22.2247C2.61317 22.8378 3.33877 23.3113 4.14052 23.6117C4.90561 23.9049 5.77647 24.1075 7.05463 24.1705C8.33204 24.2282 8.73784 24.2402 12 24.2402C15.2622 24.2402 15.6687 24.2245 16.9454 24.1705C18.2235 24.1075 19.0944 23.9042 19.8595 23.6117C20.6602 23.3094 21.3854 22.836 21.9845 22.2247C22.5983 21.6277 23.072 20.9019 23.3714 20.0997C23.6647 19.3346 23.8672 18.4638 23.9302 17.1856C23.988 15.9082 24 15.5024 24 12.2402C24 8.97808 23.9842 8.57153 23.9302 7.29487C23.8672 6.01671 23.664 5.14135 23.3714 4.38075C23.0691 3.58 22.5958 2.85481 21.9845 2.25574C21.3875 1.64193 20.6617 1.16824 19.8595 0.868813C19.0944 0.571776 18.2235 0.373001 16.9454 0.309993C15.668 0.252236 15.2622 0.240234 12 0.240234ZM12 2.4005C15.2037 2.4005 15.5862 2.41626 16.8524 2.47026C18.0203 2.52502 18.6563 2.72004 19.0786 2.88507C19.6007 3.07778 20.0732 3.38452 20.4618 3.78293C20.8595 4.16985 21.1651 4.64129 21.3559 5.16235C21.5209 5.58465 21.716 6.22073 21.7707 7.38863C21.8247 8.65479 21.8405 9.03808 21.8405 12.241C21.8405 15.4439 21.8247 15.8272 21.7662 17.0933C21.7032 18.2612 21.5082 18.8973 21.3439 19.3196C21.1166 19.8829 20.8631 20.2767 20.4446 20.7028C20.0547 21.0987 19.5825 21.404 19.0614 21.5969C18.6443 21.7619 17.9993 21.9569 16.8269 22.0117C15.5539 22.0657 15.1789 22.0815 11.967 22.0815C8.7551 22.0815 8.3808 22.0657 7.10639 22.0072C5.93849 21.9442 5.29416 21.7492 4.87186 21.5849C4.30179 21.3576 3.91099 21.1041 3.49244 20.6855C3.07013 20.2632 2.8016 19.8612 2.59457 19.3024C2.42655 18.8853 2.23453 18.2402 2.17227 17.0678C2.12952 15.8099 2.10926 15.4199 2.10926 12.223C2.10926 9.02758 2.12952 8.63678 2.17227 7.36312C2.23453 6.19073 2.42655 5.54715 2.59457 5.1286C2.8016 4.55777 3.07088 4.16773 3.49244 3.74542C3.91024 3.32762 4.30179 3.05759 4.87186 2.84606C5.29416 2.68179 5.92274 2.48677 7.09514 2.42826C8.36805 2.3825 8.74309 2.366 11.9505 2.366L12 2.4005ZM12 6.08121C11.1909 6.08092 10.3897 6.24006 9.64212 6.54955C8.89456 6.85904 8.21531 7.31281 7.6432 7.88493C7.07108 8.45705 6.61731 9.13629 6.30782 9.88386C5.99833 10.6314 5.83918 11.4326 5.83948 12.2417C5.83918 13.0508 5.99833 13.8521 6.30782 14.5996C6.61731 15.3472 7.07108 16.0264 7.6432 16.5985C8.21531 17.1707 8.89456 17.6244 9.64212 17.9339C10.3897 18.2434 11.1909 18.4025 12 18.4023C12.8091 18.4025 13.6103 18.2434 14.3579 17.9339C15.1054 17.6244 15.7847 17.1707 16.3568 16.5985C16.9289 16.0264 17.3827 15.3472 17.6922 14.5996C18.0017 13.8521 18.1608 13.0508 18.1605 12.2417C18.1608 11.4326 18.0017 10.6314 17.6922 9.88386C17.3827 9.13629 16.9289 8.45705 16.3568 7.88493C15.7847 7.31281 15.1054 6.85904 14.3579 6.54955C13.6103 6.24006 12.8091 6.08092 12 6.08121ZM12 16.242C9.78872 16.242 7.99975 14.453 7.99975 12.2417C7.99975 10.0305 9.78872 8.24148 12 8.24148C14.2113 8.24148 16.0002 10.0305 16.0002 12.2417C16.0002 14.453 14.2113 16.242 12 16.242ZM19.849 5.83518C19.8486 6.21748 19.6964 6.58398 19.426 6.85417C19.1555 7.12435 18.7888 7.27611 18.4066 7.27611C18.2175 7.27611 18.0303 7.23888 17.8557 7.16654C17.6811 7.09421 17.5224 6.98818 17.3887 6.85451C17.2551 6.72085 17.149 6.56217 17.0767 6.38753C17.0044 6.21289 16.9671 6.02571 16.9671 5.83668C16.9671 5.64766 17.0044 5.46048 17.0767 5.28584C17.149 5.1112 17.2551 4.95252 17.3887 4.81885C17.5224 4.68519 17.6811 4.57916 17.8557 4.50682C18.0303 4.43449 18.2175 4.39725 18.4066 4.39725C19.1994 4.39725 19.849 5.04233 19.849 5.83518Z" fill="#4A4A4A"/>
</svg>
