<svg width="76" height="21" viewBox="0 0 76 21" fill="none" xmlns="http://www.w3.org/2000/svg">
<path d="M4.9235 14.776C4.9235 12.352 5.6435 8.416 5.9795 5.992C6.0515 5.392 6.2195 4.792 6.2195 4.192C6.2195 3.064 5.2835 2.584 4.2755 2.584C3.7475 2.584 3.0995 2.752 2.7155 3.136C2.1155 3.736 2.2355 4.912 2.1635 5.704C1.8035 9.136 0.9875 12.544 0.9875 16.024C0.9875 16.576 1.1075 17.032 1.5635 17.392C2.3555 17.992 4.6115 18.064 5.6195 18.064C6.6755 18.064 10.1795 18.04 10.1795 16.456C10.1795 15.568 8.7395 15.112 8.0195 15.112C7.2515 15.112 6.4835 15.328 5.7155 15.328C5.3075 15.328 4.9235 15.304 4.9235 14.776ZM12.815 10.552C12.815 14.536 15.263 17.968 19.487 17.968C23.735 17.968 26.783 14.176 26.783 10.096C26.783 6.928 24.935 4.552 21.887 3.76C20.855 3.496 19.799 3.256 18.743 3.256C14.807 3.256 12.815 7.048 12.815 10.552ZM23.015 10.048C23.015 11.92 22.223 13.96 20.591 14.992C20.279 15.208 19.919 15.352 19.535 15.352C18.095 15.352 16.991 13.264 16.751 12.04C16.655 11.536 16.631 10.984 16.631 10.456C16.631 9.088 16.991 7.072 18.191 6.208C18.311 6.112 18.455 6.088 18.599 6.088C18.911 6.088 19.199 6.184 19.511 6.184C20.015 6.184 20.519 6.232 20.975 6.4C22.439 6.952 23.015 8.608 23.015 10.048ZM35.2826 11.032C34.7546 11.032 34.1546 10.984 34.1546 10.312C34.1546 9.496 35.8346 5.32 36.6746 5.32C36.7706 5.32 37.4666 6.256 38.7146 6.256C39.4826 6.256 40.6346 5.728 40.6346 4.84C40.6346 3.472 37.7306 2.416 36.5786 2.416C32.1146 2.416 30.0266 8.776 30.0266 12.376C30.0266 16.216 32.1386 20.104 36.4346 20.104C40.4426 20.104 42.5066 16.816 42.5066 13.12C42.5066 11.2 41.8586 10.864 40.0106 10.864C38.4506 10.864 36.8666 11.032 35.2826 11.032ZM36.5546 17.296C35.3546 17.296 34.0826 15.328 34.0826 14.248C34.0826 13.696 34.9466 13.888 35.3066 13.888C36.2186 13.888 37.1306 13.744 38.0186 13.744C38.3066 13.744 38.5466 13.84 38.5466 14.176C38.5466 15.112 37.6826 17.296 36.5546 17.296ZM52.1287 16.384C52.1287 17.992 51.9607 19.6 54.1207 19.6C54.9847 19.6 56.0647 19.192 56.0647 18.184V12.112C56.0647 10.672 56.1367 10.072 56.1367 8.632C56.1367 7.072 56.0887 5.824 54.1447 5.824C53.3047 5.824 52.2247 6.208 52.2247 7.216V12.424C52.2247 13.744 52.1287 15.064 52.1287 16.384ZM54.3367 0.207999C51.1447 0.207999 51.7447 3.616 54.2407 3.616C57.3847 3.616 56.8087 0.207999 54.3367 0.207999ZM75.0054 3.328C75.0054 2.128 74.2134 1.6 73.0854 1.6C72.8454 1.6 72.6054 1.624 72.3654 1.696C71.1414 2.056 71.1654 2.968 71.1174 4.048C70.9974 6.184 70.9014 9.328 70.4214 11.344C70.3974 11.44 70.3494 11.584 70.2054 11.584C70.1094 11.584 70.0374 11.512 69.9654 11.44C68.5014 9.856 65.6694 6.376 63.3894 6.376C62.5254 6.376 61.8294 6.784 61.5654 7.648C60.8454 10.096 60.4614 12.808 60.1494 15.352C60.0774 16.024 59.9094 16.72 59.9094 17.392C59.9094 17.536 59.9094 17.68 59.9334 17.824C60.0534 18.712 61.1094 18.976 61.8534 18.976C62.0214 18.976 62.1894 18.952 62.3574 18.928C63.9654 18.592 63.7494 16.936 63.8934 15.664C64.0374 14.248 64.2534 12.472 64.5894 11.104C64.6134 10.984 64.6614 10.816 64.8054 10.816C64.9254 10.816 64.9974 10.888 65.0694 10.96C66.5574 12.376 67.8294 14.224 69.3174 15.712C69.8454 16.24 70.6134 16.576 71.3814 16.576C72.1014 16.576 72.6534 16.264 72.9654 15.592C74.5254 12.304 74.5974 8.56 74.8374 5.008C74.8854 4.432 75.0054 3.88 75.0054 3.328Z" fill="#533F22"/>
</svg>
