<svg width="38" height="38" viewBox="0 0 38 38" fill="none" xmlns="http://www.w3.org/2000/svg">
<circle cx="18.6201" cy="18.6201" r="18.6201" fill="#9DAB86"/>
<path d="M15.4742 17.6698C15.2699 17.6712 15.0673 17.6334 14.8783 17.5585C14.6892 17.4837 14.5175 17.3733 14.373 17.2338C14.2286 17.0943 14.1142 16.9285 14.0367 16.746C13.9592 16.5635 13.92 16.3679 13.9215 16.1706C13.9215 15.333 14.6066 14.6703 15.4742 14.6703C16.3406 14.6703 17.0269 15.333 17.0269 16.1706C17.0269 17.0071 16.3406 17.6698 15.4742 17.6698ZM23.5289 17.6698C23.3246 17.6712 23.1221 17.6334 22.933 17.5585C22.744 17.4837 22.5723 17.3733 22.4278 17.2338C22.2833 17.0943 22.169 16.9285 22.0915 16.746C22.014 16.5635 21.9748 16.3679 21.9762 16.1706C21.9762 15.333 22.6626 14.6703 23.5289 14.6703C24.3965 14.6703 25.0816 15.333 25.0816 16.1706C25.0816 17.0071 24.3965 17.6698 23.5289 17.6698ZM13.246 26.6578L14.11 26.1491C15.0883 25.5732 16.2467 25.3516 17.3785 25.5238C17.6347 25.5623 17.8449 25.5926 18.0069 25.6125C18.4974 25.6755 18.9977 25.707 19.5016 25.707C24.8424 25.707 29.0474 22.1813 29.0474 18.007C29.0474 13.8326 24.8424 10.307 19.5016 10.307C14.1607 10.307 9.95573 13.8326 9.95573 18.007C9.95573 19.6006 10.5599 21.1255 11.6861 22.4181C11.7441 22.4846 11.8311 22.578 11.9446 22.6923C12.4196 23.1699 12.7839 23.7396 13.0133 24.3636C13.2426 24.9875 13.3319 25.6515 13.275 26.3113L13.2448 26.6578H13.246ZM12.4848 29.8393C12.2947 29.9541 12.0753 30.0156 11.8511 30.0169C11.627 30.0182 11.4068 29.9593 11.2154 29.8467C11.0239 29.7341 10.8686 29.5723 10.767 29.3794C10.6653 29.1864 10.6212 28.97 10.6396 28.7543L10.8668 26.1176C10.8953 25.7878 10.8508 25.4558 10.7362 25.1438C10.6216 24.8318 10.4396 24.547 10.2022 24.3081C10.0755 24.1825 9.95298 24.0529 9.8349 23.9196C8.39215 22.2618 7.53906 20.2178 7.53906 18.007C7.53906 12.4653 12.8944 7.97363 19.5016 7.97363C26.1087 7.97363 31.4641 12.4653 31.4641 18.007C31.4641 23.5486 26.1087 28.0403 19.5016 28.0403C18.8853 28.0403 18.2811 28.0018 17.6903 27.926C17.4607 27.896 17.2315 27.8633 17.0027 27.828C16.4366 27.7417 15.8572 27.8525 15.3679 28.1406L12.4836 29.8393H12.4848Z" fill="#4A4A4A"/>
</svg>
