<svg width="27" height="22" viewBox="0 0 27 22" fill="none" xmlns="http://www.w3.org/2000/svg">
<path d="M23.4008 13.803C23.4008 17.7253 17.927 21.2976 11.4068 21.2976C5.42559 21.2965 0.208008 18.4603 0.208008 14.1961C0.208008 11.9246 1.63384 9.42798 4.12301 7.09348C7.54501 3.88982 11.6497 2.38832 13.6181 4.23748C14.2198 4.79982 14.4917 5.54648 14.4869 6.40515C16.8733 5.73315 18.8973 5.93382 19.9038 7.28248C20.4464 8.00932 20.5467 8.89248 20.2978 9.85732C22.1235 10.569 23.4008 11.9223 23.4008 13.803ZM18.0358 11.388C17.5693 10.9096 17.5524 10.3146 17.7965 9.74298C18.0478 9.15032 18.0539 8.79565 17.9415 8.64632C17.6225 8.21698 16.0891 8.22282 14.0821 9.00915C13.8853 9.08905 13.6785 9.14395 13.467 9.17248C13.0514 9.22615 12.6563 9.17365 12.2793 8.86332C11.773 8.44448 11.7065 7.86582 11.8902 7.32798C12.15 6.54632 12.1077 6.07265 11.9349 5.91048C11.7101 5.70048 10.996 5.68765 9.93026 6.07732C8.63855 6.54982 7.15351 7.50531 5.80501 8.76765C3.74238 10.7031 2.62467 12.6608 2.62467 14.1961C2.62467 16.8118 6.58317 18.9643 11.4068 18.9643C16.7477 18.9643 20.9841 16.1993 20.9841 13.803C20.9841 12.942 20.2144 12.2408 18.9625 11.8756C18.4865 11.7438 18.3149 11.6761 18.0358 11.3891V11.388ZM26.5593 9.50148C26.4789 9.801 26.2785 10.0574 26.0023 10.2143C25.7261 10.3711 25.3966 10.4156 25.0864 10.338C24.7762 10.2603 24.5106 10.0669 24.3481 9.80014C24.1857 9.53344 24.1396 9.21533 24.22 8.91582C24.4278 8.14664 24.4286 7.33898 24.2224 6.56941C24.0163 5.79984 23.6099 5.09387 23.0419 4.51846C22.4739 3.94304 21.7631 3.51725 20.9768 3.28146C20.1906 3.04567 19.355 3.0077 18.5493 3.17115C18.3931 3.2044 18.2317 3.20739 18.0743 3.17995C17.917 3.15251 17.7668 3.09519 17.6326 3.0113C17.4983 2.92741 17.3826 2.81863 17.2923 2.69126C17.2019 2.56389 17.1386 2.42046 17.106 2.26929C17.0735 2.11813 17.0723 1.96223 17.1027 1.81063C17.133 1.65903 17.1942 1.51475 17.2827 1.38616C17.3712 1.25756 17.4852 1.14721 17.6182 1.06149C17.7513 0.975778 17.9006 0.916404 18.0575 0.886816C19.2655 0.64264 20.5181 0.700253 21.6965 1.0542C22.875 1.40814 23.9404 2.0467 24.7918 2.90939C25.6432 3.77208 26.2524 4.83034 26.5617 5.98394C26.871 7.13754 26.8702 8.34828 26.5593 9.50148Z" fill="#4A4A4A"/>
</svg>
