<svg width="38" height="38" viewBox="0 0 38 38" fill="none" xmlns="http://www.w3.org/2000/svg">
<circle cx="18.874" cy="18.6201" r="18.6201" fill="#D7C79E"/>
<path d="M29.3998 21.8035C29.3998 25.7258 23.926 29.2981 17.4059 29.2981C11.4246 29.297 6.20703 26.4608 6.20703 22.1966C6.20703 19.9251 7.63286 17.4285 10.122 15.094C13.544 11.8903 17.6487 10.3888 19.6171 12.238C20.2189 12.8003 20.4907 13.547 20.4859 14.4056C22.8724 13.7336 24.8963 13.9343 25.9029 15.283C26.4454 16.0098 26.5457 16.893 26.2968 17.8578C28.1226 18.5695 29.3998 19.9228 29.3998 21.8035ZM24.0348 19.3885C23.5684 18.9101 23.5514 18.3151 23.7955 17.7435C24.0469 17.1508 24.0529 16.7961 23.9405 16.6468C23.6215 16.2175 22.0882 16.2233 20.0811 17.0096C19.8843 17.0895 19.6775 17.1444 19.4661 17.173C19.0504 17.2266 18.6553 17.1741 18.2783 16.8638C17.772 16.445 17.7055 15.8663 17.8892 15.3285C18.149 14.5468 18.1067 14.0731 17.9339 13.911C17.7092 13.701 16.995 13.6881 15.9293 14.0778C14.6376 14.5503 13.1525 15.5058 11.804 16.7681C9.74141 18.7036 8.6237 20.6613 8.6237 22.1966C8.6237 24.8123 12.5822 26.9648 17.4059 26.9648C22.7467 26.9648 26.9831 24.1998 26.9831 21.8035C26.9831 20.9425 26.2134 20.2413 24.9616 19.8761C24.4855 19.7443 24.3139 19.6766 24.0348 19.3896V19.3885ZM32.5584 17.502C32.4779 17.8015 32.2775 18.0579 32.0013 18.2148C31.7251 18.3716 31.3956 18.4161 31.0854 18.3385C30.7752 18.2608 30.5096 18.0673 30.3472 17.8006C30.1847 17.5339 30.1386 17.2158 30.219 16.9163C30.4268 16.1471 30.4276 15.3395 30.2215 14.5699C30.0153 13.8003 29.6089 13.0944 29.0409 12.5189C28.4729 11.9435 27.7621 11.5177 26.9758 11.282C26.1896 11.0462 25.354 11.0082 24.5483 11.1716C24.3922 11.2049 24.2307 11.2079 24.0734 11.1804C23.916 11.153 23.7658 11.0957 23.6316 11.0118C23.4973 10.9279 23.3817 10.8191 23.2913 10.6917C23.2009 10.5644 23.1376 10.4209 23.105 10.2698C23.0725 10.1186 23.0714 9.96271 23.1017 9.81112C23.132 9.65952 23.1932 9.51524 23.2817 9.38665C23.3702 9.25805 23.4843 9.1477 23.6173 9.06198C23.7503 8.97627 23.8996 8.91689 24.0565 8.8873C25.2645 8.64313 26.5171 8.70074 27.6956 9.05469C28.8741 9.40863 29.9394 10.0472 30.7908 10.9099C31.6422 11.7726 32.2514 12.8308 32.5607 13.9844C32.8701 15.138 32.8692 16.3488 32.5584 17.502Z" fill="#4A4A4A"/>
</svg>
