<svg width="20" height="18" viewBox="0 0 20 18" fill="none" xmlns="http://www.w3.org/2000/svg">
<path d="M14.638 8.667C14.364 8.583 14.175 8.525 14.319 8.159C14.63 7.362 14.663 6.675 14.326 6.184C13.693 5.264 11.962 5.313 9.978 6.159C9.978 6.157 9.355 6.436 9.514 5.932C9.82 4.935 9.773 4.099 9.298 3.617C8.222 2.519 5.361 3.658 2.906 6.156C1.067 8.027 0 10.009 0 11.724C0 15.005 4.132 17.199 8.175 17.199C13.474 17.199 17 13.865 17 11.377C17 9.872 15.756 9.019 14.638 8.667ZM8.186 15.728C4.961 16.048 2.175 14.581 1.966 12.453C1.757 10.324 4.202 8.338 7.428 8.015C10.654 7.695 13.439 9.161 13.648 11.29C13.857 13.421 11.412 15.408 8.186 15.728ZM19.9 5.996C19.8997 5.20833 19.7443 4.42843 19.4427 3.70082C19.141 2.97321 18.699 2.31214 18.1418 1.75536C17.5847 1.19858 16.9233 0.75699 16.1955 0.455805C15.4677 0.15462 14.6877 -0.000262354 13.9 3.33586e-07C13.7146 3.33586e-07 13.5368 0.0736447 13.4057 0.204733C13.2746 0.335821 13.201 0.513614 13.201 0.699C13.201 0.884387 13.2746 1.06218 13.4057 1.19327C13.5368 1.32436 13.7146 1.398 13.9 1.398C15.1204 1.39827 16.2906 1.88323 17.1535 2.74625C18.0163 3.60926 18.501 4.77965 18.501 6C18.5011 6.09186 18.5192 6.18281 18.5544 6.26765C18.5897 6.35249 18.6412 6.42957 18.7062 6.49448C18.7712 6.55938 18.8484 6.61085 18.9333 6.64595C19.0182 6.68104 19.1091 6.69907 19.201 6.699C19.2929 6.69894 19.3838 6.68078 19.4686 6.64556C19.5535 6.61035 19.6306 6.55877 19.6955 6.49377C19.7604 6.42877 19.8119 6.35162 19.8469 6.26673C19.882 6.18183 19.9001 6.09086 19.9 5.999V5.996ZM17.119 5.894C16.9608 5.12782 16.5817 4.42474 16.0285 3.87154C15.4753 3.31834 14.7722 2.93923 14.006 2.781C13.9149 2.75979 13.8206 2.75703 13.7284 2.7729C13.6363 2.78876 13.5482 2.82293 13.4695 2.87337C13.3908 2.92382 13.323 2.98952 13.2701 3.06661C13.2171 3.1437 13.1802 3.2306 13.1614 3.3222C13.1427 3.41379 13.1424 3.50822 13.1608 3.5999C13.1791 3.69159 13.2156 3.77868 13.2681 3.85603C13.3206 3.93337 13.3881 3.99941 13.4666 4.05025C13.5451 4.10108 13.6329 4.13568 13.725 4.152C14.2231 4.25461 14.6802 4.50089 15.0399 4.86041C15.3996 5.21993 15.6461 5.67695 15.749 6.175C15.7866 6.35664 15.8946 6.51599 16.0494 6.61814C16.2042 6.72029 16.3932 6.75692 16.575 6.72C16.7565 6.68221 16.9156 6.57409 17.0175 6.41929C17.1195 6.2645 17.1559 6.07563 17.119 5.894ZM6.532 10.101C5.232 10.363 4.355 11.453 4.573 12.535C4.791 13.619 6.02 14.285 7.32 14.023C8.619 13.761 9.496 12.671 9.279 11.589C9.061 10.507 7.83 9.839 6.532 10.101Z" fill="black"/>
</svg>
