<svg width="225" height="94" viewBox="0 0 225 94" fill="none" xmlns="http://www.w3.org/2000/svg">
<path d="M19.08 0.775997C16.536 0.775997 15.576 2.312 14.664 4.424C12.744 9.032 11.208 13.832 9.432 18.488C9.384 18.584 9.336 18.872 9.144 18.92C8.616 18.44 8.424 6.824 8.424 5.24C8.424 2.456 7.8 0.727998 4.584 0.727998C1.608 0.727998 0.6 2.072 0.6 4.904C0.6 6.2 0.792 7.544 0.792 8.84C0.888 15.08 1.08 21.848 2.616 27.896C3.336 30.776 4.152 34.52 7.848 34.52C11.4 34.52 12.408 30.92 13.56 28.28C15.192 24.488 16.488 20.648 17.976 16.808C18.024 16.664 18.12 16.424 18.312 16.376C18.456 16.472 18.552 16.664 18.6 16.856C18.984 18.104 19.272 19.448 19.608 20.744C20.136 22.808 20.76 24.92 21.384 26.984C22.152 29.528 22.632 33.752 25.8 34.424C26.184 34.52 26.568 34.52 26.952 34.52C29.208 34.52 30.504 32.936 31.32 30.968C34.152 24.152 35.64 14.984 36.936 7.688C37.08 6.776 37.416 5.816 37.416 4.856C37.416 2.84 35.16 2.072 33.48 2.072C32.328 2.072 31.128 2.504 30.36 3.368C29.256 4.616 29.352 7.112 29.064 8.696C28.536 11.864 27.912 14.984 27.192 18.104C27.144 18.2 27.144 18.488 26.952 18.536C26.568 18.248 23.352 4.568 22.776 2.744C22.296 1.304 20.472 0.775997 19.08 0.775997ZM62.9036 32.648C62.9036 30.728 60.5036 29.96 58.9196 29.96C56.9516 29.96 55.4156 31.64 53.3996 31.64C52.8716 31.64 52.5356 31.208 52.5356 30.68C52.5356 29.096 52.5356 27.464 52.6796 25.88C52.7276 25.256 53.2556 24.728 53.8796 24.584C55.7516 24.104 60.0236 22.52 60.0236 20.168C60.0236 18.392 57.7196 17.384 56.2316 17.384C55.3676 17.384 54.5516 17.864 53.8316 17.864C53.4476 17.864 53.3996 17.528 53.3996 17.192C53.3996 16.184 53.5916 15.128 53.6876 14.12C53.8316 12.68 53.8796 11.24 53.9756 9.8C54.0236 9.128 53.9756 8.504 53.9756 7.832C53.9756 7.016 54.5516 7.304 55.0796 7.304C57.0956 7.304 63.0476 6.68 63.0476 3.896C63.0476 2.072 60.7916 1.112 59.2556 1.112C58.6316 1.112 57.7676 1.208 57.2396 1.496H56.9516C55.6076 1.496 54.2636 1.832 52.8716 1.832C50.9516 1.832 48.4076 2.216 47.0156 3.656C46.3916 4.28 46.2956 5.096 46.2476 5.96C46.0076 14.264 44.6636 22.568 44.6636 30.872C44.6636 35 44.1356 37.928 49.3676 37.928C51.7676 37.928 59.1596 36.584 61.2236 35.288C62.0876 34.712 62.9036 33.752 62.9036 32.648ZM79.4723 27.512C79.0403 27.512 78.5123 27.224 78.5123 26.744C78.5123 24.056 78.8003 21.416 78.8003 18.728C78.8003 14.792 78.6562 10.808 78.6562 6.872C78.6562 4.28 77.3123 3.128 74.7203 3.128C72.5603 3.128 70.8323 4.184 70.8323 6.536C70.8323 10.328 71.0243 14.12 71.0243 17.912C71.0243 21.464 70.9763 25.016 70.4963 28.52C70.4003 29.24 70.2563 30.008 70.2563 30.728C70.2563 32.792 72.0803 33.608 73.9043 33.608C75.1043 33.608 76.3043 33.32 77.5043 33.224C80.3843 32.984 83.3123 32.936 86.1923 32.936C88.0163 32.936 91.0883 32.504 91.0883 30.104C91.0883 28.232 88.7843 27.368 87.2003 27.368C84.6083 27.368 82.0643 27.512 79.4723 27.512ZM109.357 33.944C111.277 33.944 113.197 33.56 115.069 33.032C116.653 32.552 118.573 32.072 118.861 30.152C118.861 30.104 118.861 30.056 118.861 29.96C118.861 28.184 116.653 27.368 115.165 27.368C113.149 27.368 111.325 28.616 109.261 28.616C105.661 28.616 104.605 23.72 104.605 20.936C104.605 16.664 106.813 8.792 111.613 7.832C111.805 7.784 111.949 7.784 112.141 7.784C113.437 7.784 114.589 8.552 115.933 8.552C117.277 8.552 119.437 7.544 119.437 6.008C119.437 2.984 114.685 2.504 112.525 2.504C107.773 2.504 103.645 4.52 100.909 8.408C98.4128 11.912 97.0688 16.28 97.0688 20.6C97.0688 28.328 101.245 33.944 109.357 33.944ZM139.031 32.792C148.823 32.792 154.487 24.632 154.487 15.416C154.487 7.832 150.455 2.504 142.535 2.504C140.951 2.504 139.415 2.696 137.879 2.936C130.151 4.232 125.927 12.248 125.927 19.592C125.927 27.512 131.015 32.792 139.031 32.792ZM139.847 8.36C140.519 8.36 141.191 8.504 141.863 8.504C142.439 8.504 142.967 8.36 143.543 8.36C146.087 8.36 146.855 13.736 146.855 15.656C146.855 19.976 144.359 27.368 139.175 27.368C134.807 27.368 133.607 22.904 133.607 19.304C133.607 16.04 135.767 8.36 139.847 8.36ZM179.151 14.6C178.911 14.6 178.815 14.36 178.719 14.216C176.751 10.52 174.063 5.48 169.215 5.48C168.063 5.48 166.959 5.768 165.903 6.248C161.151 8.456 160.959 13.976 160.959 18.536C160.959 22.04 161.343 25.544 161.343 29.096C161.343 32.072 162.207 33.8 165.519 33.8C167.823 33.8 169.359 32.792 169.359 30.392C169.359 26.072 168.735 21.8 168.735 17.48C168.735 16.856 168.783 12.968 169.503 12.968C169.743 12.968 169.839 13.208 169.935 13.352C171.423 15.752 172.335 18.488 173.535 21.032C174.687 23.528 175.983 27.128 179.295 27.128H179.535C183.087 26.888 184.095 23.672 185.199 20.888C186.351 17.96 187.215 14.648 188.847 11.96C188.943 11.816 189.087 11.576 189.279 11.576C189.519 11.576 189.615 11.912 189.663 12.104C190.575 15.512 190.527 19.592 190.527 23.048C190.527 26.072 190.383 29.048 190.383 32.072C190.383 34.568 191.823 35.672 194.271 35.672C196.527 35.672 198.303 34.712 198.303 32.264C198.303 29.96 198.351 27.704 198.351 25.4C198.351 18.584 198.255 10.472 195.183 4.28C194.511 2.936 193.359 2.216 191.823 2.216C189.855 2.216 187.359 3.464 185.823 4.712C182.703 7.256 181.215 10.616 179.583 14.168C179.487 14.36 179.391 14.6 179.151 14.6ZM210.578 34.904H220.274C222.05 34.904 223.49 34.712 223.49 32.264C223.49 29.912 222.002 29.672 220.274 29.672H214.994C212.978 29.672 212.978 30.008 212.978 27.992C212.978 26.216 213.026 24.488 213.026 22.712C213.026 22.184 213.122 21.992 213.602 21.8C215.282 21.224 220.274 19.88 220.274 17.624C220.274 16.088 218.162 15.128 216.818 15.128C215.858 15.128 214.898 15.656 214.082 15.656C213.65 15.656 213.458 15.32 213.458 14.936C213.458 12.632 213.698 9.656 213.842 7.304C213.89 6.632 214.322 6.344 214.946 6.344C216.674 6.344 218.402 6.584 220.13 6.584C221.906 6.584 224.21 6.392 224.21 3.848C224.21 0.775997 221.042 1.208 219.122 1.208C215.234 1.208 213.218 1.208 210.146 1.208C208.562 1.208 206.738 1.736 206.594 3.56C206.306 6.728 206.306 9.416 206.162 12.584C205.922 17.24 205.538 21.944 205.538 26.6C205.538 28.52 205.586 30.392 205.73 32.264C205.97 34.712 208.658 34.904 210.578 34.904ZM16.056 76.632C16.056 76.44 16.152 76.248 16.248 76.104C17.448 74.184 18.072 72.312 18.072 70.056C18.072 65.064 15 60.696 10.152 59.4C9.576 59.256 8.952 59.16 8.328 59.16C6.504 59.16 4.92 59.976 3.192 60.408C2.04 60.696 0.984 61.224 0.744 62.52C0.6 63.24 0.6 64.008 0.6 64.728C0.6 66.216 0.744 67.752 0.744 69.24C0.744 76.392 0.792 83.592 1.704 90.696C1.944 92.616 3.192 93.864 5.16 93.864C5.736 93.864 6.312 93.72 6.888 93.72C7.704 93.72 8.52 93.912 9.336 93.912C14.808 93.912 21.24 89.016 21.24 83.256C21.24 81.768 20.712 80.472 19.656 79.368C18.648 78.312 17.832 77.976 16.584 77.304C16.296 77.16 16.056 76.968 16.056 76.632ZM9.96 88.44C9.576 88.44 9.048 88.2 9 87.768C8.712 86.088 8.568 84.216 8.568 82.536C8.568 81.912 8.952 81.432 9.576 81.432C11.016 81.432 13.656 81.528 13.656 83.496C13.656 85.176 11.88 87.624 10.44 88.344C10.296 88.44 10.152 88.44 9.96 88.44ZM8.664 74.568C8.376 74.568 8.328 74.232 8.328 73.992C8.184 71.784 8.28 69.576 8.28 67.368C8.28 66.84 8.184 66.36 8.184 65.832C8.184 65.544 8.376 65.304 8.664 65.304C8.856 65.304 9.048 65.448 9.192 65.592C10.056 66.696 10.584 68.664 10.584 70.056C10.584 71.496 10.104 73.224 9.096 74.328C9 74.424 8.856 74.568 8.664 74.568ZM43.5158 61.608C42.7958 61.272 40.7798 60.408 39.0518 62.712C35.5958 67.32 31.9478 74.712 30.0278 81.528C29.6918 82.824 27.7238 89.4 27.7238 90.12C27.7238 91.992 30.0278 92.76 31.5638 92.76C35.2598 92.76 35.4518 90.216 36.2198 87.384L37.1318 84.072C37.3718 83.256 37.8038 83.496 38.4758 83.496C40.2518 83.496 41.7878 83.256 43.2758 83.256C43.8518 83.256 44.3318 83.592 44.5238 84.12C44.7638 84.84 44.9558 85.56 45.2918 86.28C46.0118 87.912 47.4518 88.776 49.2278 88.776C50.7158 88.776 53.1638 87.864 53.1638 86.088C53.1638 85.128 52.4438 84.12 52.1078 83.256C50.1877 78.456 48.3158 63.96 43.5158 61.608ZM39.9638 78.024C39.5318 78.024 39.1958 77.784 39.1958 77.352C39.1958 76.632 40.9718 72.36 41.4038 71.544C41.4998 71.4 41.5958 71.16 41.7878 71.16C42.0278 71.16 42.0758 71.496 42.1238 71.64C42.4598 73.08 42.6518 74.568 42.8438 76.008C42.8918 76.44 43.0838 76.824 43.0838 77.256C43.0838 77.592 42.9398 77.736 42.6518 77.784C41.8358 77.976 40.7798 78.024 39.9638 78.024ZM75.5985 87.816C74.8305 87.816 74.1105 87.96 73.3425 87.96C68.7825 87.96 67.6785 83.544 67.6785 79.8C67.6785 76.248 68.9745 69.96 71.8065 67.464C72.0465 67.224 72.6705 67.368 73.0065 67.368C74.4465 67.368 76.4625 66.36 76.4625 64.68C76.4625 62.376 73.2945 61.656 71.4705 61.656C63.2625 61.656 59.6625 73.08 59.6625 79.704C59.6625 88.632 65.0865 93.384 73.7265 93.384C75.6945 93.384 79.4385 93.336 79.4385 90.504C79.4385 88.584 77.1825 87.816 75.5985 87.816ZM91.2716 92.04C95.7356 92.04 95.1596 88.344 95.1596 85.128C95.1596 84.888 95.2556 84.504 95.5916 84.504C95.8316 84.504 102.456 90.024 103.416 90.696C104.472 91.464 105.768 91.848 107.064 91.848C108.648 91.848 110.472 90.936 110.472 89.112C110.472 88.104 109.704 87.384 108.936 86.808C107.592 85.8 106.248 84.744 104.904 83.64C102.6 81.72 100.056 79.896 97.8956 77.832C97.6556 77.592 97.5116 77.4 97.5116 77.064C97.5116 75.816 109.08 67.56 109.08 64.056C109.08 62.232 106.536 61.416 105.048 61.416C104.28 61.416 103.512 61.56 102.792 61.944C101.352 62.712 96.6476 69.576 95.3036 69.576C95.1116 69.576 95.0156 69.288 94.9676 69.144C94.4396 67.56 94.6796 65.688 94.4876 64.008C94.2476 61.8 92.7596 60.696 90.5996 60.696C88.6796 60.696 86.6156 61.32 86.6156 63.624C86.6156 65.352 86.9996 67.128 87.0956 68.856C87.5276 75.432 87.3356 82.008 87.3356 88.584C87.3356 91.128 88.9196 92.04 91.2716 92.04Z" fill="#533F22"/>
<path d="M133.294 72.216C136.558 72.216 136.942 70.584 136.942 67.848C136.942 65.592 135.454 64.584 133.294 64.584C130.03 64.584 129.694 66.36 129.694 69.048C129.694 71.256 131.182 72.216 133.294 72.216ZM133.726 84.648C134.59 84.648 135.502 84.408 136.222 83.928C137.566 83.064 137.326 81.528 137.326 80.136C137.326 77.928 135.742 77.016 133.726 77.016C130.606 77.016 130.078 78.696 130.078 81.336C130.078 83.64 131.518 84.648 133.726 84.648ZM148.393 58.728C146.953 58.728 144.553 59.64 144.553 61.368C144.553 62.424 145.321 62.856 145.945 63.48C148.777 66.216 150.313 75.384 150.313 79.272C150.313 81.672 150.121 84.264 148.969 86.472C148.009 88.296 144.889 87.912 144.889 90.408C144.889 92.184 146.953 92.904 148.441 92.904C155.689 92.904 157.513 85.08 157.513 79.32C157.513 72.744 155.785 63.912 150.601 59.496C149.977 58.968 149.209 58.728 148.393 58.728Z" fill="#7C8D5F"/>
</svg>
