<svg width="301" height="105" viewBox="0 0 301 105" fill="none" xmlns="http://www.w3.org/2000/svg">
<path d="M27.44 0.367996C24.048 0.367996 22.768 2.416 21.552 5.232C18.992 11.376 16.944 17.776 14.576 23.984C14.512 24.112 14.448 24.496 14.192 24.56C13.488 23.92 13.232 8.432 13.232 6.32C13.232 2.608 12.4 0.303997 8.112 0.303997C4.144 0.303997 2.8 2.096 2.8 5.872C2.8 7.6 3.056 9.392 3.056 11.12C3.184 19.44 3.44 28.464 5.488 36.528C6.448 40.368 7.536 45.36 12.464 45.36C17.2 45.36 18.544 40.56 20.08 37.04C22.256 31.984 23.984 26.864 25.968 21.744C26.032 21.552 26.16 21.232 26.416 21.168C26.608 21.296 26.736 21.552 26.8 21.808C27.312 23.472 27.696 25.264 28.144 26.992C28.848 29.744 29.68 32.56 30.512 35.312C31.536 38.704 32.176 44.336 36.4 45.232C36.912 45.36 37.424 45.36 37.936 45.36C40.944 45.36 42.672 43.248 43.76 40.624C47.536 31.536 49.52 19.312 51.248 9.584C51.44 8.368 51.888 7.088 51.888 5.808C51.888 3.12 48.88 2.096 46.64 2.096C45.104 2.096 43.504 2.672 42.48 3.824C41.008 5.488 41.136 8.816 40.752 10.928C40.048 15.152 39.216 19.312 38.256 23.472C38.192 23.6 38.192 23.984 37.936 24.048C37.424 23.664 33.136 5.424 32.368 2.992C31.728 1.072 29.296 0.367996 27.44 0.367996ZM85.8715 42.864C85.8715 40.304 82.6715 39.28 80.5595 39.28C77.9355 39.28 75.8875 41.52 73.1995 41.52C72.4955 41.52 72.0475 40.944 72.0475 40.24C72.0475 38.128 72.0475 35.952 72.2395 33.84C72.3035 33.008 73.0075 32.304 73.8395 32.112C76.3355 31.472 82.0315 29.36 82.0315 26.224C82.0315 23.856 78.9595 22.512 76.9755 22.512C75.8235 22.512 74.7355 23.152 73.7755 23.152C73.2635 23.152 73.1995 22.704 73.1995 22.256C73.1995 20.912 73.4555 19.504 73.5835 18.16C73.7755 16.24 73.8395 14.32 73.9675 12.4C74.0315 11.504 73.9675 10.672 73.9675 9.776C73.9675 8.688 74.7355 9.072 75.4395 9.072C78.1275 9.072 86.0635 8.24 86.0635 4.528C86.0635 2.096 83.0555 0.815998 81.0075 0.815998C80.1755 0.815998 79.0235 0.943996 78.3195 1.328H77.9355C76.1435 1.328 74.3515 1.776 72.4955 1.776C69.9355 1.776 66.5435 2.288 64.6875 4.208C63.8555 5.04 63.7275 6.128 63.6635 7.28C63.3435 18.352 61.5515 29.424 61.5515 40.496C61.5515 46 60.8475 49.904 67.8235 49.904C71.0235 49.904 80.8795 48.112 83.6315 46.384C84.7835 45.616 85.8715 44.336 85.8715 42.864ZM107.963 36.016C107.387 36.016 106.683 35.632 106.683 34.992C106.683 31.408 107.067 27.888 107.067 24.304C107.067 19.056 106.875 13.744 106.875 8.496C106.875 5.04 105.083 3.504 101.627 3.504C98.747 3.504 96.443 4.912 96.443 8.048C96.443 13.104 96.699 18.16 96.699 23.216C96.699 27.952 96.635 32.688 95.995 37.36C95.867 38.32 95.675 39.344 95.675 40.304C95.675 43.056 98.107 44.144 100.539 44.144C102.139 44.144 103.739 43.76 105.339 43.632C109.179 43.312 113.083 43.248 116.923 43.248C119.355 43.248 123.451 42.672 123.451 39.472C123.451 36.976 120.379 35.824 118.267 35.824C114.811 35.824 111.419 36.016 107.963 36.016ZM147.809 44.592C150.369 44.592 152.929 44.08 155.425 43.376C157.537 42.736 160.097 42.096 160.481 39.536C160.481 39.472 160.481 39.408 160.481 39.28C160.481 36.912 157.537 35.824 155.553 35.824C152.865 35.824 150.433 37.488 147.681 37.488C142.881 37.488 141.473 30.96 141.473 27.248C141.473 21.552 144.417 11.056 150.817 9.776C151.073 9.712 151.265 9.712 151.521 9.712C153.249 9.712 154.785 10.736 156.577 10.736C158.369 10.736 161.249 9.392 161.249 7.344C161.249 3.312 154.913 2.672 152.033 2.672C145.697 2.672 140.193 5.36 136.545 10.544C133.217 15.216 131.425 21.04 131.425 26.8C131.425 37.104 136.993 44.592 147.809 44.592ZM187.375 43.056C200.431 43.056 207.983 32.176 207.983 19.888C207.983 9.776 202.607 2.672 192.047 2.672C189.935 2.672 187.887 2.928 185.839 3.248C175.535 4.976 169.903 15.664 169.903 25.456C169.903 36.016 176.687 43.056 187.375 43.056ZM188.463 10.48C189.359 10.48 190.255 10.672 191.151 10.672C191.919 10.672 192.623 10.48 193.391 10.48C196.783 10.48 197.807 17.648 197.807 20.208C197.807 25.968 194.479 35.824 187.567 35.824C181.743 35.824 180.143 29.872 180.143 25.072C180.143 20.72 183.023 10.48 188.463 10.48ZM240.869 18.8C240.549 18.8 240.421 18.48 240.293 18.288C237.669 13.36 234.085 6.64 227.621 6.64C226.085 6.64 224.613 7.024 223.205 7.664C216.869 10.608 216.613 17.968 216.613 24.048C216.613 28.72 217.125 33.392 217.125 38.128C217.125 42.096 218.277 44.4 222.693 44.4C225.765 44.4 227.812 43.056 227.812 39.856C227.812 34.096 226.981 28.4 226.981 22.64C226.981 21.808 227.045 16.624 228.005 16.624C228.325 16.624 228.453 16.944 228.581 17.136C230.565 20.336 231.781 23.984 233.381 27.376C234.917 30.704 236.645 35.504 241.061 35.504H241.381C246.117 35.184 247.461 30.896 248.933 27.184C250.469 23.28 251.621 18.864 253.797 15.28C253.925 15.088 254.117 14.768 254.373 14.768C254.693 14.768 254.821 15.216 254.885 15.472C256.101 20.016 256.037 25.456 256.037 30.064C256.037 34.096 255.845 38.064 255.845 42.096C255.845 45.424 257.765 46.896 261.029 46.896C264.037 46.896 266.405 45.616 266.405 42.352C266.405 39.28 266.469 36.272 266.469 33.2C266.469 24.112 266.341 13.296 262.245 5.04C261.349 3.248 259.813 2.288 257.765 2.288C255.141 2.288 251.812 3.952 249.765 5.616C245.604 9.008 243.621 13.488 241.445 18.224C241.317 18.48 241.189 18.8 240.869 18.8ZM282.77 45.872H295.698C298.066 45.872 299.986 45.616 299.986 42.352C299.986 39.216 298.002 38.896 295.698 38.896H288.658C285.97 38.896 285.97 39.344 285.97 36.656C285.97 34.288 286.034 31.984 286.034 29.616C286.034 28.912 286.162 28.656 286.802 28.4C289.042 27.632 295.698 25.84 295.698 22.832C295.698 20.784 292.882 19.504 291.09 19.504C289.81 19.504 288.53 20.208 287.442 20.208C286.866 20.208 286.61 19.76 286.61 19.248C286.61 16.176 286.93 12.208 287.122 9.072C287.186 8.176 287.762 7.792 288.594 7.792C290.898 7.792 293.202 8.112 295.506 8.112C297.874 8.112 300.946 7.856 300.946 4.464C300.946 0.367996 296.722 0.943996 294.162 0.943996C288.978 0.943996 286.29 0.943996 282.194 0.943996C280.082 0.943996 277.65 1.648 277.458 4.08C277.074 8.304 277.074 11.888 276.882 16.112C276.562 22.32 276.05 28.592 276.05 34.8C276.05 37.36 276.114 39.856 276.306 42.352C276.626 45.616 280.21 45.872 282.77 45.872ZM7.552 75.824C8.128 75.824 8.656 76.256 8.656 76.88V98.144C8.656 99.008 8.512 99.872 8.512 100.736C8.512 103.232 9.856 104.528 12.352 104.528C13.312 104.528 14.368 104.288 15.136 103.712C16.24 102.896 16.192 101.84 16.192 100.592V76.16C16.192 75.2 16.624 75.584 17.296 75.536L20.656 75.392C22.192 75.344 24.112 75.248 25.12 73.904C25.408 73.52 25.552 73.136 25.552 72.704C25.552 70.544 22.96 69.92 21.28 69.92C20.272 69.92 19.264 70.064 18.256 70.112C13.456 70.304 8.656 70.208 3.856 70.544C2.368 70.64 0.4 71.456 0.4 73.184C0.4 75.056 2.608 75.872 4.192 75.872C5.296 75.872 6.448 75.824 7.552 75.824ZM43.9371 101.792C53.7291 101.792 59.3931 93.632 59.3931 84.416C59.3931 76.832 55.3611 71.504 47.4411 71.504C45.8571 71.504 44.3211 71.696 42.7851 71.936C35.0571 73.232 30.8331 81.248 30.8331 88.592C30.8331 96.512 35.9211 101.792 43.9371 101.792ZM44.7531 77.36C45.4251 77.36 46.0971 77.504 46.7691 77.504C47.3451 77.504 47.8731 77.36 48.4491 77.36C50.9931 77.36 51.7611 82.736 51.7611 84.656C51.7611 88.976 49.2651 96.368 44.0811 96.368C39.7131 96.368 38.5131 91.904 38.5131 88.304C38.5131 85.04 40.6731 77.36 44.7531 77.36Z" fill="#533F22"/>
<path d="M83.8176 75.824C84.3936 75.824 84.9216 76.256 84.9216 76.88V98.144C84.9216 99.008 84.7776 99.872 84.7776 100.736C84.7776 103.232 86.1216 104.528 88.6176 104.528C89.5776 104.528 90.6336 104.288 91.4016 103.712C92.5056 102.896 92.4576 101.84 92.4576 100.592V76.16C92.4576 75.2 92.8896 75.584 93.5616 75.536L96.9216 75.392C98.4576 75.344 100.378 75.248 101.386 73.904C101.674 73.52 101.818 73.136 101.818 72.704C101.818 70.544 99.2256 69.92 97.5456 69.92C96.5376 69.92 95.5296 70.064 94.5216 70.112C89.7216 70.304 84.9216 70.208 80.1216 70.544C78.6336 70.64 76.6656 71.456 76.6656 73.184C76.6656 75.056 78.8736 75.872 80.4576 75.872C81.5616 75.872 82.7136 75.824 83.8176 75.824ZM132.731 80.528C132.731 78.032 132.587 75.44 131.963 72.992C131.483 71.216 130.091 70.544 128.315 70.544C126.395 70.544 124.523 71.36 124.523 73.52C124.523 74.72 124.907 75.824 125.003 76.976C125.147 78.32 125.147 79.664 125.147 80.96C125.147 85.472 124.187 94.4 120.731 97.568C120.299 98 119.771 98.384 119.099 98.384C117.035 98.384 116.027 93.968 115.787 92.384C115.499 90.416 115.355 88.4 115.355 86.432C115.355 83.168 115.787 80.096 116.843 77.072C116.987 76.688 117.083 76.4 117.083 76.016C117.083 74.048 114.923 73.28 113.291 73.28C111.323 73.28 110.027 74.384 109.355 76.208C108.203 79.376 107.819 83.024 107.819 86.384C107.819 93.776 109.355 103.856 118.859 103.856C121.451 103.856 124.091 102.944 126.107 101.312C131.483 96.992 132.731 87.008 132.731 80.528ZM171.032 69.68C165.656 69.68 160.76 81.584 158.648 81.584C157.736 81.584 157.016 80.336 156.44 79.712C154.184 77.264 149.48 73.664 146.072 73.664C145.112 73.664 144.152 73.952 143.432 74.624C141.128 76.784 139.928 96.272 139.928 100.208C139.928 102.848 141.176 104.192 143.864 104.192C146.6 104.192 147.704 102.896 147.704 100.256C147.704 95.264 148.04 90.368 148.568 85.376C148.616 84.848 148.76 82.352 149.432 82.352C150.728 82.352 155.096 89.696 158.792 89.696C163.208 89.696 166.184 83.072 166.808 83.072C167.048 83.072 167.048 83.456 167.048 83.6C167.192 86 167.144 88.448 167.24 90.848C167.384 94.256 166.904 99.776 171.8 99.776C173.432 99.776 175.976 98.624 175.976 96.704C175.976 95.84 175.304 95.024 175.112 94.16C174.824 92.864 174.872 91.472 174.824 90.128C174.584 84.56 174.68 78.944 174.68 73.376C174.68 71.024 173.432 69.68 171.032 69.68ZM189.146 75.824C189.722 75.824 190.25 76.256 190.25 76.88V98.144C190.25 99.008 190.106 99.872 190.106 100.736C190.106 103.232 191.45 104.528 193.946 104.528C194.906 104.528 195.962 104.288 196.73 103.712C197.834 102.896 197.786 101.84 197.786 100.592V76.16C197.786 75.2 198.218 75.584 198.89 75.536L202.25 75.392C203.786 75.344 205.706 75.248 206.714 73.904C207.002 73.52 207.146 73.136 207.146 72.704C207.146 70.544 204.554 69.92 202.874 69.92C201.866 69.92 200.858 70.064 199.85 70.112C195.05 70.304 190.25 70.208 185.45 70.544C183.962 70.64 181.994 71.456 181.994 73.184C181.994 75.056 184.202 75.872 185.786 75.872C186.89 75.872 188.042 75.824 189.146 75.824ZM238.059 80.528C238.059 78.032 237.915 75.44 237.291 72.992C236.811 71.216 235.419 70.544 233.643 70.544C231.723 70.544 229.851 71.36 229.851 73.52C229.851 74.72 230.235 75.824 230.331 76.976C230.475 78.32 230.475 79.664 230.475 80.96C230.475 85.472 229.515 94.4 226.059 97.568C225.627 98 225.099 98.384 224.427 98.384C222.363 98.384 221.355 93.968 221.115 92.384C220.827 90.416 220.683 88.4 220.683 86.432C220.683 83.168 221.115 80.096 222.171 77.072C222.315 76.688 222.411 76.4 222.411 76.016C222.411 74.048 220.251 73.28 218.619 73.28C216.651 73.28 215.355 74.384 214.683 76.208C213.531 79.376 213.147 83.024 213.147 86.384C213.147 93.776 214.683 103.856 224.187 103.856C226.779 103.856 229.419 102.944 231.435 101.312C236.811 96.992 238.059 87.008 238.059 80.528ZM276.36 69.68C270.984 69.68 266.088 81.584 263.976 81.584C263.064 81.584 262.344 80.336 261.768 79.712C259.512 77.264 254.808 73.664 251.4 73.664C250.44 73.664 249.48 73.952 248.76 74.624C246.456 76.784 245.256 96.272 245.256 100.208C245.256 102.848 246.504 104.192 249.192 104.192C251.928 104.192 253.032 102.896 253.032 100.256C253.032 95.264 253.368 90.368 253.896 85.376C253.944 84.848 254.088 82.352 254.76 82.352C256.056 82.352 260.424 89.696 264.12 89.696C268.536 89.696 271.512 83.072 272.136 83.072C272.376 83.072 272.376 83.456 272.376 83.6C272.52 86 272.472 88.448 272.568 90.848C272.712 94.256 272.232 99.776 277.128 99.776C278.76 99.776 281.304 98.624 281.304 96.704C281.304 95.84 280.632 95.024 280.44 94.16C280.152 92.864 280.2 91.472 280.152 90.128C279.912 84.56 280.008 78.944 280.008 73.376C280.008 71.024 278.76 69.68 276.36 69.68Z" fill="#7C8D5F"/>
</svg>
