<svg width="198" height="174" viewBox="0 0 198 174" fill="none" xmlns="http://www.w3.org/2000/svg">
<path fill-rule="evenodd" clip-rule="evenodd" d="M96.2694 9.18633C115.988 8.94433 137.276 -0.226915 153.983 9.36572C170.87 19.0619 173.711 39.8647 179.907 57.2097C186.117 74.5924 198.866 93.5956 189.911 109.943C180.935 126.329 154.18 123.884 137.688 134.279C121.89 144.237 115.421 168.006 96.2694 168.965C77.238 169.917 64.5403 151.257 51.4248 138.596C40.5893 128.136 34.5821 115.416 27.4734 102.553C18.7586 86.7833 2.90012 72.5521 5.23121 55.0084C7.67962 36.5818 21.9015 19.7116 39.6691 10.7687C56.6246 2.23451 76.9221 9.42378 96.2694 9.18633Z" fill="#DFB679" stroke="#BA883C" stroke-opacity="0.78" stroke-width="10"/>
</svg>
