<svg width="247" height="210" viewBox="0 0 247 210" fill="none" xmlns="http://www.w3.org/2000/svg">
<path fill-rule="evenodd" clip-rule="evenodd" d="M120.058 10.1053C144.916 9.81016 171.753 -1.37429 192.814 10.3241C214.102 22.1487 217.684 47.5179 225.495 68.6704C233.323 89.8688 249.395 113.043 238.106 132.98C226.79 152.962 193.062 149.98 172.272 162.657C152.355 174.801 144.201 203.788 120.058 204.957C96.0659 206.119 80.0588 183.362 63.5248 167.922C49.8652 155.166 42.2923 139.654 33.3309 123.967C22.3446 104.736 2.35282 87.3806 5.29147 65.9859C8.37803 43.5145 26.3067 22.941 48.7052 12.035C70.0799 1.62745 95.6677 10.3949 120.058 10.1053Z" fill="#DFB679" stroke="#9E712E" stroke-opacity="0.78" stroke-width="10"/>
</svg>
