<svg width="301" height="256" viewBox="0 0 301 256" fill="none" xmlns="http://www.w3.org/2000/svg">
<path fill-rule="evenodd" clip-rule="evenodd" d="M146.273 11.2795C176.796 10.9165 209.747 -2.84037 235.607 11.5486C261.746 26.0929 266.144 57.2971 275.734 83.3146C285.345 109.389 305.08 137.893 291.218 162.415C277.324 186.994 235.912 183.326 210.384 198.918C185.93 213.855 175.918 249.51 146.273 250.947C116.815 252.376 97.1608 224.385 76.8596 205.394C60.0877 189.704 50.7893 170.624 39.786 151.329C26.2965 127.675 1.74966 106.328 5.35789 80.0126C9.1477 52.3728 31.1614 27.0674 58.6634 13.653C84.9083 0.851768 116.326 11.6357 146.273 11.2795Z" fill="#DFB679" stroke="#8A6F47" stroke-width="10"/>
</svg>
