<svg width="27" height="22" viewBox="0 0 27 22" fill="none" xmlns="http://www.w3.org/2000/svg">
<path d="M23.4008 13.5632C23.4008 17.4856 17.927 21.0579 11.4068 21.0579C5.42559 21.0567 0.208008 18.2206 0.208008 13.9564C0.208008 11.6849 1.63384 9.18824 4.12301 6.85374C7.54501 3.65007 11.6497 2.14857 13.6181 3.99774C14.2198 4.56007 14.4917 5.30674 14.4869 6.1654C16.8733 5.4934 18.8973 5.69407 19.9038 7.04274C20.4464 7.76957 20.5467 8.65274 20.2978 9.61757C22.1235 10.3292 23.4008 11.6826 23.4008 13.5632ZM18.0358 11.1482C17.5693 10.6699 17.5524 10.0749 17.7965 9.50324C18.0478 8.91057 18.0539 8.5559 17.9415 8.40657C17.6225 7.97724 16.0891 7.98307 14.0821 8.7694C13.8853 8.8493 13.6785 8.9042 13.467 8.93274C13.0514 8.9864 12.6563 8.9339 12.2793 8.62357C11.773 8.20474 11.7065 7.62607 11.8902 7.08824C12.15 6.30657 12.1077 5.8329 11.9349 5.67074C11.7101 5.46074 10.996 5.4479 9.93026 5.83757C8.63855 6.31007 7.15351 7.26557 5.80501 8.5279C3.74238 10.4634 2.62467 12.4211 2.62467 13.9564C2.62467 16.5721 6.58317 18.7246 11.4068 18.7246C16.7477 18.7246 20.9841 15.9596 20.9841 13.5632C20.9841 12.7022 20.2144 12.0011 18.9625 11.6359C18.4865 11.5041 18.3149 11.4364 18.0358 11.1494V11.1482ZM26.5593 9.26174C26.4789 9.56125 26.2785 9.81765 26.0023 9.97453C25.7261 10.1314 25.3966 10.1759 25.0864 10.0982C24.7762 10.0206 24.5106 9.82711 24.3481 9.5604C24.1857 9.29369 24.1396 8.97559 24.22 8.67607C24.4278 7.9069 24.4286 7.09923 24.2224 6.32966C24.0163 5.56009 23.6099 4.85413 23.0419 4.27871C22.4739 3.7033 21.7631 3.27751 20.9768 3.04172C20.1906 2.80593 19.355 2.76796 18.5493 2.9314C18.3931 2.96465 18.2317 2.96765 18.0743 2.94021C17.917 2.91277 17.7668 2.85544 17.6326 2.77155C17.4983 2.68767 17.3826 2.57888 17.2923 2.45151C17.2019 2.32414 17.1386 2.18071 17.106 2.02955C17.0735 1.87838 17.0723 1.72248 17.1027 1.57088C17.133 1.41929 17.1942 1.27501 17.2827 1.14641C17.3712 1.01782 17.4852 0.907464 17.6182 0.821748C17.7513 0.736032 17.9006 0.676658 18.0575 0.647069C19.2655 0.402894 20.5181 0.460507 21.6965 0.814452C22.875 1.1684 23.9404 1.80696 24.7918 2.66965C25.6432 3.53234 26.2524 4.5906 26.5617 5.74419C26.871 6.89779 26.8702 8.10853 26.5593 9.26174Z" fill="black"/>
</svg>
