<svg width="25" height="23" viewBox="0 0 25 23" fill="none" xmlns="http://www.w3.org/2000/svg">
<path d="M8.47224 10.4296C8.26793 10.431 8.06537 10.3931 7.87633 10.3183C7.6873 10.2434 7.51555 10.1331 7.37108 9.99358C7.22661 9.85409 7.11229 9.68827 7.03477 9.50575C6.95726 9.32324 6.91808 9.12766 6.91953 8.9304C6.91953 8.09273 7.60465 7.43006 8.47224 7.43006C9.33861 7.43006 10.0249 8.09273 10.0249 8.9304C10.0249 9.7669 9.33861 10.4296 8.47224 10.4296ZM16.527 10.4296C16.3227 10.431 16.1201 10.3931 15.9311 10.3183C15.742 10.2434 15.5703 10.1331 15.4258 9.99358C15.2814 9.85409 15.167 9.68827 15.0895 9.50575C15.012 9.32324 14.9728 9.12766 14.9743 8.9304C14.9743 8.09273 15.6606 7.43006 16.527 7.43006C17.3946 7.43006 18.0797 8.09273 18.0797 8.9304C18.0797 9.7669 17.3946 10.4296 16.527 10.4296ZM6.24407 19.4176L7.10803 18.9089C8.08633 18.333 9.24473 18.1114 10.3766 18.2836C10.6327 18.3221 10.843 18.3524 11.0049 18.3722C11.4955 18.4352 11.9957 18.4667 12.4996 18.4667C17.8404 18.4667 22.0454 14.9411 22.0454 10.7667C22.0454 6.5924 17.8404 3.06673 12.4996 3.06673C7.15878 3.06673 2.95378 6.5924 2.95378 10.7667C2.95378 12.3604 3.55794 13.8852 4.68411 15.1779C4.74211 15.2444 4.82911 15.3377 4.94269 15.4521C5.41765 15.9296 5.78192 16.4993 6.0113 17.1233C6.24068 17.7473 6.32991 18.4112 6.27307 19.0711L6.24286 19.4176H6.24407ZM5.48282 22.5991C5.29276 22.7139 5.07338 22.7754 4.8492 22.7767C4.62501 22.778 4.40488 22.719 4.21341 22.6064C4.02194 22.4938 3.86668 22.332 3.76501 22.1391C3.66334 21.9462 3.61926 21.7298 3.63769 21.5141L3.86486 18.8774C3.89336 18.5475 3.84884 18.2156 3.73426 17.9036C3.61967 17.5916 3.43765 17.3067 3.20028 17.0679C3.07354 16.9422 2.95103 16.8127 2.83294 16.6794C1.39019 15.0216 0.537109 12.9776 0.537109 10.7667C0.537109 5.22507 5.89244 0.733398 12.4996 0.733398C19.1068 0.733398 24.4621 5.22507 24.4621 10.7667C24.4621 16.3084 19.1068 20.8001 12.4996 20.8001C11.8834 20.8001 11.2792 20.7616 10.6883 20.6857C10.4587 20.6558 10.2295 20.6231 10.0008 20.5877C9.43466 20.5015 8.85522 20.6123 8.3659 20.9004L5.48161 22.5991H5.48282Z" fill="black"/>
</svg>
