<svg width="94" height="88" viewBox="0 0 94 88" fill="none" xmlns="http://www.w3.org/2000/svg">
<g filter="url(#filter0_d)">
<circle cx="44" cy="40" r="40" fill="#EABFA7"/>
</g>
<path d="M24.064 45.506C24.064 44.858 23.2 44.534 22.66 44.534C21.94 44.534 21.346 45.146 20.626 45.146C20.302 45.146 20.356 44.84 20.356 44.606C20.356 44.57 20.356 44.534 20.356 44.498C20.266 43.634 20.194 42.77 20.194 41.888C20.194 41.33 20.932 41.474 21.292 41.474C21.508 41.474 21.724 41.474 21.958 41.474C22.66 41.474 24.01 41.402 24.01 40.412C24.01 39.692 23.272 39.422 22.678 39.422C22.3 39.422 21.94 39.458 21.58 39.458C21.274 39.458 20.95 39.458 20.644 39.458C20.41 39.458 20.266 39.278 20.266 39.062C20.266 38.612 20.374 37.28 20.446 36.848C20.482 36.614 20.662 36.47 20.896 36.452C21.724 36.398 24.334 36.596 24.334 35.372C24.334 34.688 23.632 34.454 23.074 34.454C22.3 34.454 21.58 34.418 20.86 34.418C20.518 34.418 20.176 34.4 19.852 34.4C19.492 34.4 19.15 34.418 18.808 34.526C18.178 34.724 17.818 35.21 17.728 35.858C17.494 37.694 17.35 39.584 17.35 41.438C17.35 42.158 17.368 42.878 17.422 43.598C17.512 44.84 17.386 47.162 19.168 47.162H19.978C21.112 47.162 23.344 47.036 23.956 45.902C24.028 45.776 24.064 45.65 24.064 45.506ZM35.0275 47.252C35.5135 47.252 35.9635 47.09 36.2335 46.676C36.6115 46.118 36.7195 45.29 36.8815 44.642C37.4935 42.212 37.7635 39.746 37.9615 37.244C38.0155 36.614 38.1235 36.002 38.1235 35.372C38.1235 34.454 37.5475 34.094 36.6655 34.094C36.3055 34.094 35.9275 34.184 35.6215 34.418C35.0455 34.868 35.1895 35.768 35.1355 36.416C35.0275 37.946 34.9195 39.494 34.6855 41.024C34.6855 41.06 34.6855 41.186 34.6135 41.204C34.2895 41.006 33.4255 36.866 30.6715 35.408C30.2935 35.21 29.8795 35.066 29.4655 35.066C29.2675 35.066 29.0515 35.102 28.8715 35.174C28.1515 35.426 28.0615 36.02 27.9175 36.686C27.3775 39.152 27.1975 41.636 27.1075 44.138C27.0895 44.48 27.0355 44.804 27.0355 45.146C27.0355 46.082 27.5935 46.514 28.4935 46.514C30.1675 46.514 29.9875 45.29 29.9875 44.084C29.9875 42.482 30.0595 40.718 30.3655 39.152C30.3835 39.098 30.4015 38.972 30.4735 38.972C30.9595 39.188 32.6515 44.228 32.9755 45.092C33.1915 45.668 33.3715 46.496 33.8755 46.892C34.1995 47.144 34.6315 47.252 35.0275 47.252ZM42.1668 34.742C41.4828 34.742 40.3668 34.922 40.3668 35.84C40.3668 36.992 42.1128 36.848 42.8328 36.848C43.1748 36.848 43.3908 37.046 43.4268 37.298C43.4988 37.766 43.4448 38.216 43.4448 38.684C43.4988 41.6 43.5888 44.354 43.5888 47.198C43.5888 47.972 44.4708 48.278 45.1188 48.278C46.0908 48.278 46.5948 47.774 46.5948 46.802C46.5948 45.326 46.4688 43.922 46.3788 42.554C46.2528 40.754 46.1988 39.008 46.1988 37.136C46.1988 36.92 46.3428 36.794 46.5408 36.776C47.3868 36.668 49.5468 36.866 49.5468 35.552C49.5468 34.868 48.4488 34.562 47.9088 34.562C45.9648 34.562 44.0748 34.742 42.1668 34.742ZM53.6931 46.964H57.3291C57.9951 46.964 58.5351 46.892 58.5351 45.974C58.5351 45.092 57.9771 45.002 57.3291 45.002H55.3491C54.5931 45.002 54.5931 45.128 54.5931 44.372C54.5931 43.706 54.6111 43.058 54.6111 42.392C54.6111 42.194 54.6471 42.122 54.8271 42.05C55.4571 41.834 57.3291 41.33 57.3291 40.484C57.3291 39.908 56.5371 39.548 56.0331 39.548C55.6731 39.548 55.3131 39.746 55.0071 39.746C54.8451 39.746 54.7731 39.62 54.7731 39.476C54.7731 38.612 54.8631 37.496 54.9171 36.614C54.9351 36.362 55.0971 36.254 55.3311 36.254C55.9791 36.254 56.6271 36.344 57.2751 36.344C57.9411 36.344 58.8051 36.272 58.8051 35.318C58.8051 34.166 57.6171 34.328 56.8971 34.328C55.4391 34.328 54.6831 34.328 53.5311 34.328C52.9371 34.328 52.2531 34.526 52.1991 35.21C52.0911 36.398 52.0911 37.406 52.0371 38.594C51.9471 40.34 51.8031 42.104 51.8031 43.85C51.8031 44.57 51.8211 45.272 51.8751 45.974C51.9651 46.892 52.9731 46.964 53.6931 46.964ZM66.9783 41.888C66.9783 41.798 67.0503 41.726 67.1223 41.672C68.2923 40.7 69.0483 39.404 69.0483 37.856C69.0483 35.498 67.1223 34.058 64.8903 34.058C64.0263 34.058 62.0643 34.436 61.6143 35.282C61.5243 35.444 61.5063 35.624 61.5063 35.804C61.5063 38.126 61.6323 40.178 61.6863 42.5C61.7223 43.544 61.6863 45.002 61.6863 45.992C61.6863 46.892 62.1723 47.36 63.0723 47.36C63.4323 47.36 63.7923 47.27 64.0983 47.072C64.5303 46.784 64.5663 46.37 64.5843 45.902C64.6203 45.128 64.6023 44.336 64.6023 43.562C64.6023 43.508 64.6023 43.364 64.6923 43.364C65.0523 43.364 66.4923 46.496 68.4183 46.496C69.0663 46.496 70.1823 46.01 69.8583 45.218C69.6423 44.66 69.0843 44.624 68.7243 44.228C68.1303 43.562 67.7343 42.752 67.1043 42.122C67.0503 42.068 66.9783 41.996 66.9783 41.888ZM66.2223 38.054C66.2223 38.99 65.7003 39.944 64.8723 40.394C64.8183 40.412 64.7822 40.43 64.7283 40.43C64.5663 40.43 64.5123 40.304 64.4943 40.16C64.4403 39.35 64.4043 38.522 64.3863 37.712L64.3503 36.398C64.3503 36.092 64.6743 36.056 64.9263 36.056C65.8983 36.056 66.2223 37.262 66.2223 38.054Z" fill="black"/>
<defs>
<filter id="filter0_d" x="0" y="0" width="88" height="88" filterUnits="userSpaceOnUse" color-interpolation-filters="sRGB">
<feFlood flood-opacity="0" result="BackgroundImageFix"/>
<feColorMatrix in="SourceAlpha" type="matrix" values="0 0 0 0 0 0 0 0 0 0 0 0 0 0 0 0 0 0 127 0"/>
<feOffset dy="4"/>
<feGaussianBlur stdDeviation="2"/>
<feColorMatrix type="matrix" values="0 0 0 0 0 0 0 0 0 0 0 0 0 0 0 0 0 0 0.25 0"/>
<feBlend mode="normal" in2="BackgroundImageFix" result="effect1_dropShadow"/>
<feBlend mode="normal" in="SourceGraphic" in2="effect1_dropShadow" result="shape"/>
</filter>
</defs>
</svg>
