<svg width="274" height="97" viewBox="0 0 274 97" fill="none" xmlns="http://www.w3.org/2000/svg">
<path d="M19.704 8.016C19.704 3.456 15.336 1.584 10.968 1.584C8.136 1.584 5.064 2.4 2.52 3.312C0.408 4.08 0.648 5.616 0.648 7.344V35.664C0.648 36.096 0.6 36.576 0.6 37.056C0.6 38.688 1.416 39.072 2.616 39.984C3.432 40.656 4.584 40.944 5.688 40.944C7.032 40.944 8.376 40.608 9.672 40.224C16.056 38.496 23.208 33.408 23.208 26.688C23.208 26.448 23.208 26.16 23.16 25.968C22.824 22.896 20.712 20.736 17.736 19.536C16.968 19.2 16.248 19.056 15.528 18.768C15.24 18.672 14.952 18.528 14.952 18.24C14.952 18.096 15.048 18 15.144 17.856C17.4 15.024 19.704 11.664 19.704 8.016ZM8.76 35.232C8.424 35.232 8.184 34.944 8.184 34.656V25.248C8.184 24.768 8.088 24.288 8.088 23.808C8.088 23.376 8.136 22.8 8.712 22.752C9.24 22.704 9.768 22.704 10.296 22.704C13.272 22.704 15.672 23.712 15.672 26.832C15.672 30.048 12.072 33.744 9.192 35.136C9.048 35.184 8.904 35.232 8.76 35.232ZM8.472 15.504C8.232 15.504 8.184 15.168 8.184 15.024V7.536C8.184 6.336 9.96 6.192 10.92 6.192C11.976 6.192 12.168 7.248 12.168 8.064C12.168 10.464 10.536 13.44 8.856 15.264C8.76 15.312 8.616 15.504 8.472 15.504ZM48.7005 33.648C48.7005 31.728 46.3005 30.96 44.7165 30.96C42.7485 30.96 41.2125 32.64 39.1965 32.64C38.6685 32.64 38.3325 32.208 38.3325 31.68C38.3325 30.096 38.3325 28.464 38.4765 26.88C38.5245 26.256 39.0525 25.728 39.6765 25.584C41.5485 25.104 45.8205 23.52 45.8205 21.168C45.8205 19.392 43.5165 18.384 42.0285 18.384C41.1645 18.384 40.3485 18.864 39.6285 18.864C39.2445 18.864 39.1965 18.528 39.1965 18.192C39.1965 17.184 39.3885 16.128 39.4845 15.12C39.6285 13.68 39.6765 12.24 39.7725 10.8C39.8205 10.128 39.7725 9.504 39.7725 8.832C39.7725 8.016 40.3485 8.304 40.8765 8.304C42.8925 8.304 48.8445 7.68 48.8445 4.896C48.8445 3.072 46.5885 2.112 45.0525 2.112C44.4285 2.112 43.5645 2.208 43.0365 2.496H42.7485C41.4045 2.496 40.0605 2.832 38.6685 2.832C36.7485 2.832 34.2045 3.216 32.8125 4.656C32.1885 5.28 32.0925 6.096 32.0445 6.96C31.8045 15.264 30.4605 23.568 30.4605 31.872C30.4605 36 29.9325 38.928 35.1645 38.928C37.5645 38.928 44.9565 37.584 47.0205 36.288C47.8845 35.712 48.7005 34.752 48.7005 33.648ZM72.3731 19.344C70.4531 19.344 66.6611 19.824 66.6611 22.416C66.6611 24.048 68.7251 25.2 70.1651 25.2C70.6931 25.2 71.1251 25.008 71.6531 25.008C71.9891 25.008 72.3731 25.056 72.3731 25.488C72.3731 26.784 70.1651 28.08 69.0131 28.08C65.6531 28.08 63.7811 24.48 63.7811 21.504C63.7811 17.712 66.7091 12.816 70.0691 11.088C70.4531 10.896 71.4131 10.512 71.8451 10.512C73.2371 10.512 74.5811 11.232 75.9731 11.232C77.5571 11.232 79.5731 10.368 79.5731 8.544C79.5731 5.568 74.4371 5.088 72.2771 5.088C63.6851 5.088 56.0531 13.056 56.0531 21.6C56.0531 28.512 62.2931 33.648 68.9651 33.648C73.2851 33.648 77.4611 31.68 79.5731 27.792C80.3891 26.256 81.1091 24.336 81.1091 22.56C81.1091 20.112 78.5651 19.92 76.6931 19.68C75.2531 19.488 73.8131 19.344 72.3731 19.344ZM88.3511 27.12C88.3511 27.888 88.3031 28.656 88.3031 29.424C88.3031 32.352 89.0711 34.272 92.3831 34.272C94.1591 34.272 95.5511 33.552 96.1751 31.872C96.3191 31.44 96.4631 31.008 96.4631 30.576C96.4631 30.24 96.3671 30 96.2231 29.712C95.5991 28.512 95.9351 26.4 95.9351 25.248C95.9351 21.312 96.3671 17.952 96.3671 14.016C96.3671 11.952 94.0631 11.04 92.2871 11.04C90.9431 11.04 89.3111 11.568 89.0231 13.056C88.1111 17.664 88.3511 22.464 88.3511 27.12ZM92.5271 7.104C94.3991 7.104 96.3671 6.096 96.3671 3.984C96.3671 1.92 94.3991 0.912 92.5271 0.912C90.7031 0.912 88.7351 1.92 88.7351 3.984C88.7351 6.096 90.7031 7.104 92.5271 7.104ZM125.131 36.672C126.427 36.672 127.627 36.24 128.347 35.136C129.355 33.648 129.643 31.44 130.075 29.712C131.707 23.232 132.427 16.656 132.955 9.984C133.099 8.304 133.387 6.672 133.387 4.992C133.387 2.544 131.851 1.584 129.499 1.584C128.539 1.584 127.531 1.824 126.715 2.448C125.179 3.648 125.563 6.048 125.419 7.776C125.131 11.856 124.843 15.984 124.219 20.064C124.219 20.16 124.219 20.496 124.027 20.544C123.163 20.016 120.859 8.976 113.515 5.088C112.507 4.56 111.403 4.176 110.299 4.176C109.771 4.176 109.195 4.272 108.715 4.464C106.795 5.136 106.555 6.72 106.171 8.496C104.731 15.072 104.251 21.696 104.011 28.368C103.963 29.28 103.819 30.144 103.819 31.056C103.819 33.552 105.307 34.704 107.707 34.704C112.171 34.704 111.691 31.44 111.691 28.224C111.691 23.952 111.883 19.248 112.699 15.072C112.747 14.928 112.795 14.592 112.987 14.592C114.283 15.168 118.795 28.608 119.659 30.912C120.235 32.448 120.715 34.656 122.059 35.712C122.923 36.384 124.075 36.672 125.131 36.672ZM163.465 11.664C162.505 11.664 159.673 4.848 159.337 3.744C159.049 2.832 158.953 1.824 158.185 1.152C157.369 0.431997 156.169 0.191998 155.113 0.191998C153.481 0.191998 151.369 0.912 151.369 2.928C151.369 6.288 156.649 14.832 158.569 17.808C158.905 18.336 159.193 19.104 159.193 19.776C159.193 23.376 159.049 27.024 159.049 30.624C159.049 33.696 159.433 37.056 163.273 37.056C164.713 37.056 166.825 36.432 166.825 34.608C166.825 33.792 166.921 32.832 166.777 31.92C166.681 31.248 166.681 30.528 166.681 29.856C166.681 26.352 166.873 22.896 166.873 19.392C166.873 18.528 167.929 17.808 168.409 17.184C170.521 14.352 172.585 11.328 174.937 8.64C175.897 7.584 178.057 6.384 178.057 4.8C178.057 2.976 175.897 2.16 174.361 2.16C168.649 2.16 164.953 11.664 163.465 11.664ZM197.317 6.48C189.349 6.48 183.349 13.392 183.349 21.12C183.349 27.888 188.245 33.36 195.157 33.36C203.173 33.36 210.469 25.68 210.469 17.76C210.469 10.896 203.269 6.48 197.317 6.48ZM195.301 27.792C192.469 27.792 191.125 23.616 191.125 21.312C191.125 18.24 192.709 13.872 195.685 12.48C199.477 10.608 202.597 15.168 202.597 18C202.597 21.456 199.237 27.792 195.301 27.792ZM243.952 8.688C243.952 6.24 242.224 5.28 239.968 5.28C235.744 5.28 235.984 8.304 235.984 11.472C235.984 15.12 233.536 26.64 228.784 26.64C224.464 26.64 224.8 17.088 224.8 14.208C224.8 13.056 224.992 11.904 224.992 10.8C224.992 8.064 223.792 6.816 221.056 6.816C217.888 6.816 216.976 8.496 216.976 11.328C216.976 16.224 216.592 22.08 218.8 26.592C220.576 30.24 224.176 32.208 228.16 32.208C238.24 32.208 241.696 24.24 243.232 15.6C243.616 13.344 243.952 10.992 243.952 8.688ZM265.739 22.368C265.739 22.128 265.931 21.936 266.123 21.792C269.243 19.2 271.259 15.744 271.259 11.616C271.259 5.328 266.123 1.488 260.171 1.488C257.867 1.488 252.635 2.496 251.435 4.752C251.195 5.184 251.147 5.664 251.147 6.144C251.147 12.336 251.483 17.808 251.627 24C251.723 26.784 251.627 30.672 251.627 33.312C251.627 35.712 252.923 36.96 255.323 36.96C256.283 36.96 257.243 36.72 258.059 36.192C259.211 35.424 259.307 34.32 259.355 33.072C259.451 31.008 259.403 28.896 259.403 26.832C259.403 26.688 259.403 26.304 259.643 26.304C260.603 26.304 264.443 34.656 269.579 34.656C271.307 34.656 274.283 33.36 273.419 31.248C272.843 29.76 271.355 29.664 270.395 28.608C268.811 26.832 267.755 24.672 266.075 22.992C265.931 22.848 265.739 22.656 265.739 22.368ZM263.723 12.144C263.723 14.64 262.331 17.184 260.123 18.384C259.979 18.432 259.883 18.48 259.739 18.48C259.307 18.48 259.163 18.144 259.115 17.76C258.971 15.6 258.875 13.392 258.827 11.232L258.731 7.728C258.731 6.912 259.595 6.816 260.267 6.816C262.859 6.816 263.723 10.032 263.723 12.144Z" fill="#533F22"/>
<path d="M24.936 77.584C24.936 73.168 24.6 68.752 24.6 64.336C24.6 63.52 24.792 62.752 24.792 61.936C24.792 59.776 23.064 58.912 21.144 58.912C17.88 58.912 16.824 60.64 16.824 63.664C16.824 68.272 17.256 72.928 17.256 77.536C17.256 80.896 16.776 88.864 12.024 88.864C10.2 88.864 8.952 86.944 8.52 85.36C8.232 84.208 8.52 82.864 7.704 81.856C6.936 80.944 5.64 80.56 4.488 80.56C2.376 80.56 0.6 81.568 0.6 83.872C0.6 85.072 0.984 86.32 1.416 87.424C3.144 91.744 7.32 94.384 11.928 94.384C16.392 94.384 20.76 91.936 22.968 88.048C24.696 85.024 24.936 80.992 24.936 77.584ZM45.3949 64.48C37.4269 64.48 31.4269 71.392 31.4269 79.12C31.4269 85.888 36.3229 91.36 43.2349 91.36C51.2509 91.36 58.5469 83.68 58.5469 75.76C58.5469 68.896 51.3469 64.48 45.3949 64.48ZM43.3789 85.792C40.5469 85.792 39.2029 81.616 39.2029 79.312C39.2029 76.24 40.7869 71.872 43.7629 70.48C47.5549 68.608 50.6749 73.168 50.6749 76C50.6749 79.456 47.3149 85.792 43.3789 85.792ZM92.0303 66.688C92.0303 64.24 90.3023 63.28 88.0463 63.28C83.8223 63.28 84.0623 66.304 84.0623 69.472C84.0623 73.12 81.6143 84.64 76.8623 84.64C72.5423 84.64 72.8783 75.088 72.8783 72.208C72.8783 71.056 73.0703 69.904 73.0703 68.8C73.0703 66.064 71.8703 64.816 69.1343 64.816C65.9663 64.816 65.0543 66.496 65.0543 69.328C65.0543 74.224 64.6703 80.08 66.8783 84.592C68.6543 88.24 72.2543 90.208 76.2383 90.208C86.3183 90.208 89.7743 82.24 91.3103 73.6C91.6943 71.344 92.0303 68.992 92.0303 66.688ZM113.817 80.368C113.817 80.128 114.009 79.936 114.201 79.792C117.321 77.2 119.337 73.744 119.337 69.616C119.337 63.328 114.201 59.488 108.249 59.488C105.945 59.488 100.713 60.496 99.513 62.752C99.273 63.184 99.225 63.664 99.225 64.144C99.225 70.336 99.561 75.808 99.705 82C99.801 84.784 99.705 88.672 99.705 91.312C99.705 93.712 101.001 94.96 103.401 94.96C104.361 94.96 105.321 94.72 106.137 94.192C107.289 93.424 107.385 92.32 107.433 91.072C107.529 89.008 107.481 86.896 107.481 84.832C107.481 84.688 107.481 84.304 107.721 84.304C108.681 84.304 112.521 92.656 117.657 92.656C119.385 92.656 122.361 91.36 121.497 89.248C120.921 87.76 119.433 87.664 118.473 86.608C116.889 84.832 115.833 82.672 114.153 80.992C114.009 80.848 113.817 80.656 113.817 80.368ZM111.801 70.144C111.801 72.64 110.409 75.184 108.201 76.384C108.057 76.432 107.961 76.48 107.817 76.48C107.385 76.48 107.241 76.144 107.193 75.76C107.049 73.6 106.953 71.392 106.905 69.232L106.809 65.728C106.809 64.912 107.673 64.816 108.345 64.816C110.937 64.816 111.801 68.032 111.801 70.144ZM150.209 94.672C151.505 94.672 152.705 94.24 153.425 93.136C154.433 91.648 154.721 89.44 155.153 87.712C156.785 81.232 157.505 74.656 158.033 67.984C158.177 66.304 158.465 64.672 158.465 62.992C158.465 60.544 156.929 59.584 154.577 59.584C153.617 59.584 152.609 59.824 151.793 60.448C150.257 61.648 150.641 64.048 150.497 65.776C150.209 69.856 149.921 73.984 149.297 78.064C149.297 78.16 149.297 78.496 149.105 78.544C148.241 78.016 145.937 66.976 138.593 63.088C137.585 62.56 136.481 62.176 135.377 62.176C134.849 62.176 134.273 62.272 133.793 62.464C131.873 63.136 131.633 64.72 131.249 66.496C129.809 73.072 129.329 79.696 129.089 86.368C129.041 87.28 128.897 88.144 128.897 89.056C128.897 91.552 130.385 92.704 132.785 92.704C137.249 92.704 136.769 89.44 136.769 86.224C136.769 81.952 136.961 77.248 137.777 73.072C137.825 72.928 137.873 72.592 138.065 72.592C139.361 73.168 143.873 86.608 144.737 88.912C145.313 90.448 145.793 92.656 147.137 93.712C148.001 94.384 149.153 94.672 150.209 94.672ZM183.935 91.648C183.935 89.728 181.535 88.96 179.951 88.96C177.983 88.96 176.447 90.64 174.431 90.64C173.903 90.64 173.567 90.208 173.567 89.68C173.567 88.096 173.567 86.464 173.711 84.88C173.759 84.256 174.287 83.728 174.911 83.584C176.783 83.104 181.055 81.52 181.055 79.168C181.055 77.392 178.751 76.384 177.263 76.384C176.399 76.384 175.583 76.864 174.863 76.864C174.479 76.864 174.431 76.528 174.431 76.192C174.431 75.184 174.623 74.128 174.719 73.12C174.863 71.68 174.911 70.24 175.007 68.8C175.055 68.128 175.007 67.504 175.007 66.832C175.007 66.016 175.583 66.304 176.111 66.304C178.127 66.304 184.079 65.68 184.079 62.896C184.079 61.072 181.823 60.112 180.287 60.112C179.663 60.112 178.799 60.208 178.271 60.496H177.983C176.639 60.496 175.295 60.832 173.903 60.832C171.983 60.832 169.439 61.216 168.047 62.656C167.423 63.28 167.327 64.096 167.279 64.96C167.039 73.264 165.695 81.568 165.695 89.872C165.695 94 165.167 96.928 170.399 96.928C172.799 96.928 180.191 95.584 182.255 94.288C183.119 93.712 183.935 92.752 183.935 91.648ZM202.52 72.16C198.488 69.136 199.112 63.664 193.784 63.664C192.296 63.664 190.088 64.288 190.088 66.16C190.088 69.04 196.04 75.376 198.392 77.056C199.064 77.536 200.359 77.92 200.359 78.88C200.359 81.376 198.872 85.024 198.872 87.856C198.872 90.064 200.504 91.408 202.664 91.408C204.584 91.408 207.56 89.824 207.56 87.616C207.56 86.752 206.888 86.464 206.888 85.936C206.888 84.496 207.944 81.04 208.136 79.264C208.376 77.152 216.344 66.976 216.344 64.912C216.344 63.088 213.944 62.128 212.359 62.128C210.344 62.128 209 63.472 208.088 65.152C206.84 67.408 205.544 69.856 204.008 71.92C203.624 72.496 203 72.496 202.52 72.16Z" fill="#7C8D5F"/>
</svg>
